<?xml version="1.0" encoding="UTF-8"?>
<svg xmlns="http://www.w3.org/2000/svg" viewBox="0 0 965 1024" width="965" height="1024">
  <path fill="#000000" fill-rule="evenodd" d="M 7.11 1.58 C 6.54 3.06, 6.5 4.64, 6.45 24.67 C 6.42 36.49, 6.32 70.32, 6.23 99.83 C 6.14 129.35, 5.98 190.55, 5.88 235.83 C 5.78 281.12, 5.52 336.09, 5.31 358 C 5.1 380.83, 5.01 421.88, 5.11 454.17 C 5.26 503.31, 5.35 510.88, 5.8 513.5 C 6.09 515.15, 6.48 518.07, 6.67 520 C 6.87 521.92, 7.24 524.92, 7.49 526.67 C 7.75 528.41, 8.27 533.28, 8.65 537.5 C 9.93 551.86, 10.11 552.87, 12.7 560.98 C 13.25 562.71, 13.93 565.78, 14.22 567.81 C 14.82 572.13, 15.08 572.83, 17.07 575.5 C 18.96 578.04, 19.47 579.37, 20.33 584.05 C 22.16 593.99, 22.15 593.94, 24.6 597.45 C 25.3 598.44, 26.14 600.22, 26.47 601.38 C 27.59 605.35, 28.07 606.38, 29.71 608.25 C 30.96 609.67, 31.51 610.67, 32.01 612.4 C 32.37 613.65, 32.98 615.74, 33.36 617.05 C 33.93 619.03, 34.36 619.76, 35.85 621.32 C 37.76 623.32, 38.32 624.4, 39.01 627.32 C 39.36 628.84, 39.8 629.53, 41.67 631.5 C 43.45 633.38, 44.04 634.29, 44.62 636.01 C 45.02 637.2, 45.68 638.71, 46.09 639.37 C 47.19 641.15, 50.91 646.15, 52.94 648.58 C 53.92 649.75, 55.29 651.95, 55.99 653.47 C 56.96 655.58, 57.63 656.55, 58.83 657.54 C 59.9 658.42, 60.8 659.63, 61.67 661.33 C 62.51 662.99, 63.64 664.51, 65 665.83 C 66.13 666.93, 67.75 668.81, 68.6 670 C 69.45 671.19, 70.83 672.99, 71.68 674 C 72.53 675.01, 73.56 676.32, 73.97 676.92 C 74.38 677.51, 75.41 678.4, 76.27 678.89 C 78.43 680.12, 79.92 681.57, 80.83 683.33 C 81.93 685.45, 86.04 689.59, 88.61 691.17 C 90.53 692.34, 90.95 692.79, 92.09 694.91 C 93.07 696.73, 94.02 697.88, 96.03 699.65 C 97.49 700.94, 99.32 702.32, 100.09 702.71 C 102.36 703.86, 103.28 704.62, 104.7 706.55 C 105.54 707.68, 106.89 708.91, 108.27 709.8 C 109.5 710.59, 111.5 712.14, 112.72 713.25 C 113.94 714.36, 115.98 715.81, 117.26 716.49 C 118.65 717.22, 120.02 718.25, 120.67 719.05 C 121.26 719.79, 122.56 720.91, 123.55 721.55 C 124.55 722.19, 125.88 723.43, 126.52 724.32 C 127.73 725.99, 128.59 726.53, 131.67 727.5 C 134.38 728.35, 136.11 729.46, 137.12 730.99 C 139.13 734.03, 142.04 736.15, 146.47 737.81 C 149.75 739.04, 152.2 740.53, 154.55 742.72 C 155.68 743.77, 157.51 745.09, 158.62 745.64 C 159.73 746.2, 161.13 747.1, 161.74 747.63 C 163.46 749.14, 165.29 749.95, 168.65 750.68 C 170.36 751.05, 172.08 751.52, 172.46 751.71 C 172.85 751.91, 174.14 753.09, 175.33 754.34 C 177.04 756.13, 177.82 756.69, 179 756.99 C 179.83 757.21, 181.07 757.53, 181.76 757.71 C 182.54 757.91, 183.86 758.79, 185.18 759.99 C 187.45 762.05, 188.72 762.53, 193.5 763.15 C 195.88 763.46, 198.19 764.25, 200.56 765.56 C 201.69 766.19, 203.55 767.06, 204.7 767.51 C 207.1 768.46, 207.62 768.87, 209.41 771.28 C 211.02 773.44, 212.03 773.9, 216.09 774.33 C 220.36 774.77, 223.77 775.52, 225.61 776.44 C 226.47 776.86, 228.94 778.36, 231.11 779.76 C 234.21 781.77, 235.81 782.56, 238.61 783.46 C 240.57 784.09, 243.22 784.99, 244.5 785.46 C 246 786.01, 247.55 786.33, 248.83 786.34 C 253.2 786.37, 255.7 786.91, 258.83 788.48 C 263.43 790.79, 271.08 793.9, 273.23 794.34 C 274.3 794.56, 276.66 795.35, 278.49 796.08 C 281.38 797.24, 282.32 797.46, 285.68 797.71 C 287.8 797.87, 292.05 798.35, 295.11 798.79 C 300.76 799.6, 300.81 799.61, 305.35 802.04 C 306 802.38, 307.8 802.82, 309.35 803.02 C 311.59 803.29, 312.89 803.7, 315.71 805.03 C 318.56 806.37, 320.08 806.85, 323.54 807.49 C 334.9 809.59, 335.11 809.61, 345.03 809.78 C 355.54 809.95, 355.57 809.95, 357.61 812.14 C 359.03 813.67, 361.63 814.49, 365 814.47 C 367.44 814.46, 369.28 813.89, 369.85 812.97 C 370.57 811.81, 367.02 810.55, 362 810.18 C 358.09 809.89, 357.13 809.52, 356.15 807.97 C 354.71 805.69, 351 803.8, 346.16 802.88 C 342.68 802.22, 342.43 802.12, 340.67 800.56 C 338.44 798.6, 336.89 798.04, 332.78 797.7 C 330.79 797.53, 328.72 797.22, 328.18 797.01 C 327.63 796.8, 326.34 795.82, 325.32 794.84 C 323.62 793.23, 323.27 793.04, 321.47 792.82 C 318.78 792.49, 317.9 791.97, 316.08 789.62 C 314.16 787.15, 312.96 786.51, 309.32 785.99 C 305.56 785.46, 304.03 784.74, 301.98 782.54 C 300.23 780.66, 299.68 780.39, 296.23 779.68 C 294.57 779.33, 294.02 779.01, 292.39 777.42 C 290.47 775.54, 288.34 774.38, 284.52 773.14 C 283.06 772.67, 281.98 771.98, 280.36 770.5 C 279.15 769.39, 277.42 768.05, 276.5 767.52 C 275.58 766.98, 274.15 766.05, 273.31 765.45 C 271.34 764.04, 268.23 762.5, 265.37 761.54 C 261.57 760.25, 258.11 757.53, 256.14 754.29 C 254.78 752.05, 254.03 751.57, 250.17 750.51 C 246.95 749.63, 245.93 749.01, 244.94 747.38 C 243.49 744.97, 238.62 740.35, 236.22 739.08 C 234.91 738.39, 233.56 737.38, 233.05 736.71 C 231.59 734.77, 225.25 728.68, 224 728.01 C 222.5 727.21, 221.07 725.65, 219.66 723.26 C 218.14 720.68, 215.33 717.99, 212.5 716.4 C 210.25 715.14, 209.84 714.73, 207 710.86 C 206.36 709.98, 205.21 708.42, 204.45 707.39 C 203.59 706.23, 202.2 704.94, 200.78 704.01 C 198.91 702.77, 198.31 702.14, 197.44 700.5 C 196.85 699.4, 195.72 697.75, 194.92 696.83 C 194.12 695.92, 192.99 694.47, 192.41 693.63 C 191.83 692.78, 190.59 691.44, 189.66 690.66 C 187.94 689.22, 186.9 687.54, 185.63 684.13 C 185.11 682.75, 184.36 681.7, 182.82 680.19 C 181.43 678.83, 180.42 677.47, 179.87 676.21 C 179.4 675.16, 178.37 673.52, 177.57 672.57 C 175.67 670.3, 174.98 669.09, 173.64 665.67 C 173.03 664.11, 171.69 661.56, 170.66 660 C 169.63 658.44, 168.43 656.57, 168 655.83 C 167.57 655.1, 166.51 653.53, 165.64 652.33 C 163.98 650.05, 163.5 648.81, 162.32 643.67 C 161.51 640.13, 160.57 638.05, 158.07 634.24 C 156.89 632.44, 156 630.5, 155.18 627.96 C 154.53 625.93, 153.62 623.64, 153.16 622.86 C 152.03 620.93, 151.08 617, 150.63 612.42 C 150.2 608.01, 150.42 607.41, 152.3 607.83 C 154.51 608.31, 156.05 610.32, 157.16 614.16 C 157.84 616.52, 158.44 617.75, 159.7 619.33 C 160.75 620.66, 161.4 622.23, 162.18 625.32 C 162.91 628.24, 163.43 629.17, 165.65 631.5 C 166.69 632.6, 168.11 634.46, 168.8 635.64 C 169.49 636.82, 170.61 638.43, 171.3 639.2 C 171.98 639.98, 172.95 641.64, 173.44 642.89 C 173.96 644.21, 175 645.95, 175.93 647.03 C 176.81 648.05, 177.95 649.85, 178.47 651.03 C 179.72 653.85, 180.6 654.99, 182.47 656.17 C 184.06 657.17, 184.84 658.43, 186.15 662.07 C 186.87 664.07, 188.89 666.32, 192.7 669.36 C 195.6 671.68, 195.75 671.86, 197.35 675.2 C 198.88 678.39, 199.14 678.74, 200.92 679.91 C 202.07 680.68, 203.26 681.84, 203.92 682.84 C 204.52 683.75, 205.54 685.18, 206.19 686 C 206.84 686.83, 207.86 688.33, 208.44 689.33 C 209.34 690.89, 209.85 691.35, 211.83 692.39 C 213.11 693.06, 214.66 694.19, 215.27 694.89 C 215.89 695.59, 217.14 696.99, 218.06 698 C 218.98 699.01, 220.2 700.58, 220.78 701.48 C 221.51 702.63, 222.42 703.48, 223.76 704.25 C 224.86 704.9, 226.26 706.11, 227.04 707.09 C 227.79 708.04, 228.98 709.24, 229.69 709.76 C 230.4 710.28, 231.52 711.6, 232.19 712.7 C 233.26 714.47, 233.69 714.84, 235.95 715.99 C 237.98 717.03, 239.01 717.85, 241.03 720.06 C 242.42 721.59, 243.97 723.47, 244.49 724.25 C 245.51 725.8, 246.78 726.7, 248.83 727.33 C 252.58 728.48, 253.8 729.28, 255.35 731.59 C 257.48 734.74, 260.57 737.23, 264.38 738.85 C 267.42 740.13, 267.54 740.22, 269 742.43 C 269.83 743.68, 271.02 745.01, 271.67 745.4 C 272.31 745.78, 274.19 746.98, 275.86 748.05 C 277.52 749.13, 280.14 750.53, 281.69 751.17 C 283.96 752.11, 284.82 752.68, 286.17 754.14 C 287.08 755.14, 288.36 756.21, 289 756.53 C 289.64 756.84, 291.07 757.97, 292.17 759.03 C 294.46 761.23, 294.98 761.47, 299.31 762.36 C 303.02 763.13, 304.68 764.01, 306.55 766.23 C 307.88 767.81, 308.71 768.3, 312.09 769.5 C 312.97 769.81, 314.39 770.58, 315.26 771.2 C 317.44 772.79, 318.64 773.28, 322.12 774.04 C 325.94 774.88, 327.05 775.41, 328.59 777.15 C 330.27 779.05, 331.11 779.53, 333.76 780.14 C 336.44 780.76, 337.58 781.3, 339.86 783.03 C 341.84 784.55, 343.15 785.04, 347.99 786.14 C 352.38 787.12, 353.91 787.87, 355.49 789.8 C 356.9 791.52, 358.4 792.29, 362.71 793.53 C 364.43 794.02, 366.87 794.94, 368.13 795.57 C 370.89 796.96, 373.32 797.48, 379.51 798.02 C 383.5 798.37, 384.34 798.36, 385.18 797.96 C 386.07 797.53, 386.16 797.33, 386.15 795.92 C 386.11 793.26, 384.52 792.12, 380.22 791.67 C 376.65 791.3, 375.89 790.97, 374.66 789.26 C 373.21 787.27, 371.71 786.47, 368.2 785.84 C 363.66 785.03, 363.17 784.81, 361.45 782.79 C 359.63 780.66, 358.89 780.22, 356.17 779.67 C 353.59 779.14, 353.21 778.93, 350.97 776.82 C 349.36 775.29, 348.7 774.93, 346.14 774.15 C 342.27 772.98, 341.55 772.59, 339.21 770.43 C 335.97 767.45, 329.71 763.6, 324.33 761.3 C 321.56 760.11, 315.77 756.11, 313.33 753.7 C 311.96 752.34, 310.5 751.27, 309.33 750.76 C 305.83 749.24, 305.23 748.83, 303.95 747.1 C 303.23 746.13, 301.97 744.96, 301.08 744.45 C 300.21 743.95, 298.79 742.91, 297.92 742.14 C 297.06 741.37, 295.1 740.12, 293.58 739.35 C 292.05 738.59, 289.91 737.28, 288.82 736.46 C 287.73 735.63, 285.93 734.5, 284.83 733.94 C 282.28 732.65, 281.77 732.18, 280.81 730.28 C 279.82 728.34, 278.91 727.62, 275.97 726.46 C 274.12 725.74, 273.12 725.05, 271.21 723.19 C 269.87 721.89, 268.3 719.98, 267.7 718.93 C 266.55 716.89, 266.05 716.45, 262.65 714.58 C 259.93 713.08, 259.07 712.23, 256.64 708.62 C 254.61 705.61, 254.04 705.14, 249.69 702.83 C 247.68 701.77, 246.95 701.16, 246.07 699.83 C 242.75 694.76, 241.58 693.59, 237.19 690.95 C 235.28 689.79, 235.05 689.52, 233.14 685.95 C 231.12 682.2, 231.08 682.15, 227.97 679.92 C 224.27 677.28, 222.89 675.81, 222.13 673.71 C 220.77 669.94, 220.37 669.39, 218.05 668.03 C 216.56 667.16, 215.45 666.2, 214.68 665.12 C 214.05 664.23, 212.97 662.84, 212.27 662.04 C 211.57 661.23, 211 660.43, 211 660.26 C 211 659.47, 207.93 653.66, 206.69 652.11 C 205.94 651.16, 204.94 649.51, 204.48 648.44 C 203.88 647.06, 202.99 645.88, 201.37 644.33 C 199.29 642.35, 198.99 641.88, 197.82 638.83 C 196.68 635.84, 196.32 635.28, 194.35 633.33 C 192.49 631.5, 192 630.78, 191.23 628.65 C 190.67 627.12, 189.61 625.2, 188.5 623.72 C 187.34 622.19, 186.49 620.64, 186.17 619.48 C 185.89 618.48, 185.44 616.85, 185.16 615.86 C 184.89 614.86, 183.97 613.02, 183.13 611.77 C 181.27 609.01, 180.6 607.7, 179.85 605.4 C 179.52 604.4, 178.54 602.72, 177.6 601.56 C 175.49 598.94, 174.64 597.24, 173.57 593.49 C 173.1 591.84, 172.13 589.21, 171.41 587.66 C 169.96 584.51, 169.86 584.18, 169.14 580.09 C 168.56 576.75, 167.89 575.5, 165.85 573.95 C 163.72 572.32, 163.35 571.28, 162.64 564.73 C 161.87 557.74, 161.4 555.79, 159.48 551.64 C 158.16 548.81, 157.95 548.03, 157.65 544.81 C 157.2 539.97, 155.22 531.89, 153.58 528.21 C 152.19 525.09, 151.91 523.4, 151.01 512.83 C 149.66 496.86, 149.5 490.98, 149.57 460.67 C 149.64 431.5, 149.92 421.29, 151.01 408 C 151.49 402.18, 151.84 400.39, 153.35 395.97 C 154.07 393.84, 154.67 391.85, 154.67 391.54 C 154.67 391.24, 155.18 389.38, 155.81 387.41 C 156.43 385.44, 157.26 382.57, 157.64 381.03 C 158.1 379.15, 158.77 377.55, 159.65 376.19 C 161.26 373.71, 161.5 373.07, 162.54 368.71 C 163.52 364.53, 163.63 364.32, 165.85 361.98 C 167.31 360.43, 167.75 359.66, 168.47 357.38 C 169.63 353.71, 170.07 352.93, 171.79 351.52 C 172.69 350.78, 173.72 349.43, 174.44 348.07 C 175.09 346.84, 176.32 345.16, 177.17 344.33 C 178.01 343.51, 179.14 342.08, 179.67 341.16 C 180.2 340.24, 181.03 339.11, 181.52 338.66 C 182.01 338.21, 183.84 336.13, 185.59 334.06 C 188.77 330.28, 190.72 328.56, 193.83 326.83 C 194.75 326.31, 196.18 325.25, 197 324.47 C 197.96 323.55, 199.49 322.62, 201.26 321.88 C 203.33 321.01, 204.57 320.21, 206.18 318.71 C 208.6 316.44, 209.9 315.92, 214.62 315.31 C 218.42 314.83, 219.59 314.51, 223.18 312.98 C 224.97 312.21, 227.4 311.49, 229.18 311.19 C 237.63 309.78, 253.1 309.92, 259.9 311.47 C 261.95 311.93, 264.97 312.84, 266.6 313.47 C 268.23 314.11, 271.2 314.96, 273.2 315.35 C 277.62 316.23, 278.23 316.53, 280.06 318.71 C 281.23 320.11, 282.1 320.71, 284.66 321.91 C 286.4 322.72, 288.63 324.08, 289.63 324.94 C 290.63 325.8, 292.43 327.02, 293.64 327.67 C 295.39 328.6, 296.08 329.22, 297.08 330.73 C 297.77 331.78, 299.04 333.17, 299.9 333.84 C 300.77 334.5, 302.02 335.89, 302.69 336.93 C 303.36 337.98, 304.72 339.6, 305.71 340.54 C 307.16 341.93, 307.68 342.74, 308.45 344.81 C 309.44 347.52, 310.68 349.21, 312.45 350.3 C 313.5 350.95, 315 353.14, 315 354.05 C 315.01 354.94, 316.68 358.08, 318.17 359.97 C 319.8 362.04, 320.72 364.28, 321.33 367.62 C 321.84 370.46, 322.16 371.21, 323.68 373.18 C 325.43 375.46, 325.86 376.6, 326.66 381.12 C 327.03 383.25, 328.02 386.98, 328.85 389.41 C 331.94 398.47, 332.26 400.41, 332.83 413.5 C 333.01 417.72, 333.41 421.47, 334.36 428.14 C 334.54 429.41, 335.14 431.51, 335.68 432.81 C 336.48 434.7, 336.78 436.12, 337.17 440 C 337.44 442.66, 337.74 445.36, 337.83 446 C 337.92 446.64, 338.3 450.54, 338.68 454.66 C 339.38 462.23, 339.97 466.13, 340.87 469.17 C 342.51 474.74, 344.06 482.47, 344.34 486.5 C 344.78 492.98, 346.03 499.09, 347.61 502.59 C 349.1 505.88, 349.43 507.19, 350.18 512.83 C 351.03 519.29, 351.93 522.9, 353.52 526.35 C 354.71 528.91, 355.1 530.24, 355.5 533.09 C 356.08 537.22, 356.54 538.52, 358.75 542.23 C 360.06 544.43, 360.67 546, 361.83 550.26 C 362.86 554.01, 363.78 556.53, 364.98 558.86 C 366.04 560.94, 366.93 563.29, 367.38 565.17 C 367.77 566.82, 368.23 568.77, 368.41 569.5 C 368.65 570.49, 369.28 571.35, 370.84 572.83 C 371.99 573.93, 373.09 575.13, 373.27 575.5 C 373.45 575.87, 373.85 577.51, 374.16 579.15 C 374.84 582.82, 375.35 584.07, 376.82 585.69 C 378.29 587.32, 378.82 588.37, 379.5 591 C 380.26 593.93, 380.77 594.8, 382.83 596.72 C 384.74 598.5, 385.02 599.02, 385.85 602.31 C 386.57 605.19, 387.33 606.6, 389.46 608.98 C 390.61 610.27, 391.52 611.72, 392.01 613.03 C 392.43 614.16, 393.44 615.84, 394.25 616.79 C 395.06 617.73, 396.56 620.21, 397.58 622.3 C 398.6 624.39, 399.91 626.64, 400.5 627.3 C 401.1 627.96, 402.05 629.27, 402.63 630.22 C 403.21 631.16, 404.64 632.78, 405.82 633.81 C 407.79 635.54, 408.02 635.89, 408.85 638.42 C 410.18 642.44, 410.78 643.45, 412.7 644.86 C 413.64 645.55, 414.91 646.88, 415.51 647.81 C 416.12 648.74, 417.27 650.11, 418.07 650.86 C 418.88 651.61, 420.01 653.06, 420.59 654.09 C 421.42 655.56, 422.07 656.2, 423.57 657.08 C 424.69 657.73, 425.92 658.81, 426.5 659.63 C 427.05 660.41, 428.4 662.07, 429.5 663.32 C 430.6 664.57, 431.91 666.21, 432.41 666.96 C 432.92 667.72, 433.96 668.75, 434.72 669.25 C 435.49 669.76, 436.58 670.66, 437.14 671.27 C 442.09 676.58, 444.67 679.45, 444.67 679.64 C 444.67 679.77, 445.55 680.54, 446.62 681.35 C 447.7 682.17, 449.01 683.41, 449.54 684.12 C 450.07 684.83, 451.36 686.08, 452.42 686.89 C 453.47 687.71, 454.33 688.49, 454.33 688.63 C 454.33 689.42, 457.01 691.83, 459.02 692.84 C 460.45 693.56, 461.7 694.5, 462.4 695.36 C 463 696.12, 464.28 697.26, 465.23 697.89 C 466.21 698.54, 467.4 699.73, 467.99 700.66 C 469.23 702.58, 469.69 702.91, 473.16 704.35 C 475.42 705.29, 476.3 705.92, 479.15 708.65 C 483.8 713.09, 484.95 713.92, 487.78 714.87 C 490.67 715.84, 491.91 716.68, 493.48 718.74 C 494.35 719.88, 495.39 720.64, 497.73 721.85 C 499.44 722.72, 501.51 724, 502.33 724.68 C 504.23 726.25, 505.22 726.75, 508.33 727.68 C 512.03 728.79, 513.01 729.39, 514.72 731.59 C 516.15 733.44, 516.62 733.76, 521.05 735.97 C 524.83 737.85, 526.7 738.56, 529.97 739.36 C 532.25 739.91, 534.42 740.53, 534.8 740.73 C 535.19 740.93, 536.58 742.12, 537.9 743.37 C 540.09 745.44, 540.56 745.71, 543.2 746.52 C 544.79 747.01, 546.91 747.93, 547.91 748.56 C 550.67 750.33, 551.63 750.63, 556.21 751.16 C 560.68 751.69, 562.52 752.34, 565.18 754.34 C 566.02 754.98, 567.79 755.73, 569.94 756.35 C 571.83 756.9, 574.28 757.8, 575.39 758.36 C 577.27 759.31, 583.31 761.44, 586.58 762.31 C 587.35 762.52, 589.9 762.83, 592.24 763 C 596.76 763.32, 598.01 763.66, 603.17 765.93 C 607.99 768.05, 611.93 769.25, 614.83 769.49 C 618.13 769.76, 619.33 770.12, 621.67 771.52 C 622.78 772.2, 624.28 772.76, 625.5 772.95 C 630.04 773.69, 636.64 774.35, 644.5 774.85 C 653.85 775.45, 654.93 775.62, 659.17 777.19 C 665.16 779.4, 670.46 780.63, 675.67 781 C 684.41 781.61, 690.47 782.29, 692.17 782.84 C 693.08 783.13, 695.48 783.58, 697.5 783.83 C 699.52 784.08, 702.67 784.52, 704.5 784.79 C 709.49 785.55, 714.64 785.97, 723.33 786.33 C 735.21 786.83, 737.6 787.12, 740.8 788.49 C 745.86 790.65, 753.34 792.93, 756.61 793.29 C 759.24 793.59, 760.06 793.84, 762.16 795 C 763.66 795.83, 765.39 796.48, 766.57 796.67 C 767.63 796.85, 769.91 797.22, 771.64 797.5 C 773.36 797.79, 776.49 798.24, 778.59 798.52 C 780.68 798.79, 782.9 799.23, 783.51 799.48 C 784.12 799.74, 785.51 800.83, 786.6 801.91 C 788.63 803.92, 789.64 804.4, 792.75 804.85 C 793.72 804.99, 795.15 805.59, 796.42 806.38 C 799.48 808.3, 800.29 808.61, 803.9 809.17 C 809.57 810.07, 812.22 811.04, 814.9 813.22 C 815.67 813.84, 817.21 814.87, 818.32 815.49 C 819.44 816.12, 821.06 817.23, 821.92 817.96 C 823.75 819.49, 825.06 820.05, 829.08 820.98 C 832.61 821.8, 835.31 823.11, 837.51 825.09 C 838.42 825.91, 839.94 826.96, 840.88 827.44 C 841.91 827.96, 843.24 829.07, 844.21 830.2 C 846.03 832.34, 846.82 832.75, 850.54 833.52 C 854.28 834.29, 854.82 834.66, 856.16 837.33 C 858.17 841.32, 859.9 842.81, 864.45 844.45 C 867.29 845.48, 868.05 846.19, 869.72 849.4 C 871.2 852.24, 873.03 853.91, 876.37 855.49 C 878.94 856.7, 880.23 858.06, 881.56 861 C 882.97 864.09, 884.82 866.04, 887.72 867.52 C 890.24 868.8, 890.83 869.52, 892.13 872.9 C 893.16 875.6, 895.9 878.86, 899.38 881.54 C 901.55 883.21, 902.34 884.49, 903.17 887.67 C 903.95 890.71, 904.8 892.16, 906.49 893.41 C 908.14 894.63, 908.82 895.78, 909.17 898 C 909.53 900.32, 910.26 901.55, 912.02 902.82 C 912.91 903.45, 913.87 904.34, 914.16 904.77 C 914.44 905.21, 915.06 907.41, 915.53 909.66 C 916.07 912.28, 916.85 914.82, 917.71 916.73 C 918.49 918.45, 919.33 921.08, 919.7 922.94 C 920.46 926.74, 922.26 932.85, 922.94 933.92 C 923.2 934.33, 923.69 934.67, 924.03 934.67 C 925.61 934.67, 926.69 930.48, 926.92 923.47 C 927.13 916.87, 926.16 908.84, 924.5 903.5 C 923.87 901.48, 923.21 898.78, 923.02 897.5 C 922.84 896.22, 922.23 893.83, 921.68 892.2 C 921.12 890.56, 920.51 887.94, 920.32 886.36 C 920.03 884.02, 919.74 883.11, 918.7 881.33 C 917.06 878.55, 916.78 877.63, 916.19 873.1 C 915.57 868.37, 914.75 865.59, 912.35 860.17 C 911.3 857.78, 910.11 854.83, 909.7 853.6 C 909.26 852.28, 908.27 850.43, 907.28 849.1 C 905.11 846.17, 904.94 845.82, 903.67 841.69 C 902.42 837.62, 902.31 837.43, 899 833.5 C 894.6 828.28, 893.75 826.87, 892.51 822.75 C 892.39 822.34, 891.35 820.74, 890.2 819.2 C 889.06 817.67, 887.84 815.68, 887.51 814.79 C 886.64 812.47, 885.84 811.46, 884.06 810.45 C 881.67 809.08, 881.32 808.69, 880.1 806 C 878.86 803.28, 876.56 800.66, 872.64 797.5 C 870.78 795.99, 870.21 795.27, 868.85 792.62 C 866.47 787.98, 866.33 787.84, 862.45 785.95 C 860.53 785.01, 858.74 783.92, 858.48 783.54 C 858.21 783.15, 857.35 781.86, 856.58 780.67 C 854.82 777.98, 851.39 775.09, 848.73 774.04 C 846.64 773.22, 845.6 772.33, 844.41 770.33 C 842.92 767.84, 837.62 763.62, 835 762.84 C 833.48 762.38, 824.18 757.62, 823.38 756.89 C 822.95 756.49, 822.16 755.31, 821.63 754.26 C 820.3 751.62, 819.64 751.24, 814.58 750.17 C 811.87 749.59, 811.81 749.55, 808.57 746.07 C 807.59 745.01, 806.74 744.52, 804.71 743.85 C 802.85 743.23, 801.59 742.54, 800.3 741.44 C 798.03 739.5, 797.2 739.16, 793.2 738.51 C 789.31 737.89, 788.09 737.41, 786.05 735.72 C 783.87 733.91, 783.23 733.63, 780.4 733.28 C 777.33 732.9, 776.62 732.53, 774.45 730.21 C 772.49 728.11, 771.93 727.9, 766.28 727.16 C 759.04 726.21, 756.43 725.53, 751.67 723.31 C 748.73 721.94, 747.68 721.63, 745.17 721.37 C 741.5 720.98, 740.76 720.71, 738.25 718.83 C 737.17 718.01, 735.67 717.18, 734.91 716.98 C 732.18 716.24, 726.06 715.33, 721.58 714.99 C 718.35 714.74, 716.02 714.35, 713.74 713.69 C 711.96 713.17, 709.68 712.56, 708.67 712.33 C 707.66 712.1, 705.85 711.5, 704.64 711 C 701.96 709.87, 699.54 709.33, 697.18 709.33 C 696.2 709.33, 694.22 709.1, 692.78 708.82 C 691.34 708.53, 688.26 708.16, 685.94 707.99 C 682.61 707.74, 680.18 707.28, 674.6 705.85 C 670.7 704.85, 665.63 703.79, 663.33 703.5 C 658.41 702.87, 657.06 702.54, 654.9 701.45 C 654.01 701, 651.98 700.2, 650.39 699.68 C 648.8 699.16, 646.35 698.18, 644.95 697.51 C 643.41 696.77, 641.3 696.1, 639.65 695.81 C 638.02 695.53, 636.26 694.97, 635.36 694.45 C 632.27 692.68, 631.34 692.34, 627.5 691.67 C 623.22 690.91, 622.34 690.57, 619.78 688.61 C 618.65 687.75, 617.1 687, 615.28 686.45 C 612.4 685.56, 612.45 685.61, 609.26 681.91 C 608.43 680.95, 607.39 680.33, 605 679.37 C 601.53 677.98, 595.12 673.89, 592.67 671.49 C 591.84 670.68, 590.19 669.56, 589 668.99 C 587.5 668.28, 586.11 667.23, 584.47 665.57 C 583.18 664.25, 580.44 661.52, 578.39 659.5 C 576.33 657.48, 574.26 655.23, 573.76 654.5 C 573.27 653.77, 572.32 652.57, 571.64 651.83 C 570.95 651.1, 569.78 649.6, 569.01 648.5 C 568.25 647.4, 567 646.08, 566.23 645.56 C 563.97 644.04, 563.3 643.28, 562.31 641.08 C 561.79 639.94, 560.7 638.29, 559.89 637.42 C 559.08 636.55, 557.59 634.48, 556.57 632.83 C 555.55 631.17, 554.39 629.52, 553.99 629.16 C 552.89 628.16, 551.8 626.09, 551.03 623.5 C 550.65 622.22, 549.66 620.06, 548.84 618.7 C 548.02 617.34, 547.11 615.46, 546.81 614.53 C 546.1 612.35, 543.66 607.43, 542.12 605.12 C 540.65 602.91, 539.56 599.58, 538.33 593.59 C 537.57 589.89, 537.12 588.53, 536 586.51 C 535.24 585.13, 534.48 583.52, 534.31 582.92 C 534.14 582.33, 533.69 577.73, 533.32 572.7 C 532.94 567.66, 532.57 563.45, 532.5 563.34 C 532.29 562.99, 531.05 553.74, 530.69 549.83 C 530.18 544.26, 530.73 530.92, 531.61 527.5 C 532.24 525.02, 532.6 522.44, 533.86 511.17 C 534.43 506.12, 534.43 506.11, 535.74 503.5 C 537.2 500.6, 537.56 499.43, 538.87 493.5 C 540.1 487.9, 541.01 485.54, 543.26 482.06 C 544.01 480.91, 545.03 478.73, 545.53 477.23 C 546.65 473.81, 547.33 472.46, 549.16 469.97 C 549.96 468.88, 550.8 467.43, 551.02 466.75 C 551.68 464.71, 552.54 463.2, 554.07 461.41 C 554.86 460.49, 556.16 458.48, 556.97 456.95 C 557.78 455.42, 559.22 453.34, 560.17 452.33 C 561.12 451.32, 562.09 449.89, 562.33 449.16 C 563.14 446.67, 563.97 445.42, 565.63 444.22 C 566.55 443.57, 567.81 442.24, 568.44 441.26 C 569.07 440.29, 570.07 439.05, 570.66 438.5 C 571.25 437.95, 572.42 436.62, 573.25 435.55 C 574.08 434.48, 575.52 433.11, 576.46 432.51 C 578.58 431.14, 584.21 425.68, 585.58 423.66 C 586.31 422.57, 587.25 421.79, 588.97 420.85 C 590.28 420.13, 591.71 419.07, 592.15 418.49 C 592.59 417.92, 594.01 416.89, 595.29 416.21 C 596.67 415.48, 597.94 414.54, 598.37 413.91 C 599.94 411.62, 600.74 411.05, 604.12 409.81 C 606.87 408.8, 607.85 408.25, 609.37 406.85 C 610.76 405.56, 611.8 404.94, 613.48 404.39 C 616.8 403.3, 618.16 402.51, 619.56 400.83 C 621.23 398.83, 622.77 398.16, 627.12 397.53 C 629.94 397.13, 631.15 396.78, 632.62 395.96 C 636.25 393.92, 636.86 393.69, 640 393.19 C 643.72 392.6, 649.4 390.75, 651.61 389.42 C 655.28 387.2, 657.08 386.75, 664.17 386.27 C 673.37 385.64, 708.64 385.75, 717.17 386.43 C 721.02 386.74, 724.64 387.13, 725.21 387.3 C 725.79 387.46, 727.21 388.22, 728.38 388.98 C 729.55 389.74, 731.55 390.66, 732.83 391.03 C 737.76 392.45, 743.59 394.43, 746.58 395.7 C 748.3 396.43, 751.34 397.39, 753.34 397.84 C 757.73 398.81, 758.58 399.22, 761.18 401.63 C 762.84 403.18, 763.67 403.66, 766.01 404.45 C 767.9 405.08, 769.58 405.94, 771.08 407.06 C 772.31 407.97, 774.56 409.23, 776.06 409.86 C 777.57 410.49, 778.84 411, 778.88 411 C 778.91 411, 779.49 411.74, 780.15 412.65 C 780.82 413.55, 782.14 414.77, 783.1 415.34 C 784.05 415.92, 785.73 417.32, 786.83 418.45 C 787.93 419.58, 789.96 421.18, 791.34 422.02 C 793.3 423.21, 794.6 424.4, 797.32 427.48 C 800.04 430.57, 801.41 431.83, 803.64 433.26 C 806.86 435.33, 807.26 435.74, 808.69 438.37 C 809.25 439.4, 810.65 441.27, 811.8 442.54 C 812.94 443.8, 814.66 445.99, 815.62 447.41 C 816.57 448.83, 817.71 450.23, 818.14 450.52 C 818.58 450.8, 819.5 452.11, 820.19 453.43 C 820.88 454.75, 822.3 456.73, 823.35 457.83 C 825.47 460.07, 825.91 460.83, 826.99 464.12 C 827.57 465.88, 828.18 466.89, 829.65 468.51 C 831.27 470.29, 831.66 471, 832.3 473.22 C 833.77 478.33, 834.09 479.09, 835.59 480.95 C 836.42 481.99, 837.22 482.99, 837.37 483.18 C 837.51 483.37, 837.87 485.09, 838.15 487.01 C 838.86 491.73, 840.12 496.26, 841.68 499.67 C 843.55 503.78, 843.87 505.35, 844.65 514.54 C 845.03 519.1, 845.57 524.63, 845.85 526.83 C 846.81 534.62, 847.4 543.76, 847.23 548.33 C 847.14 550.81, 846.67 556.28, 846.19 560.5 C 843.34 585.76, 843.52 584.67, 841.38 588.9 C 840.81 590.04, 839.69 593.55, 838.84 596.89 C 837.61 601.7, 836.98 603.5, 835.51 606.36 C 833.71 609.86, 833.18 611.46, 832.15 616.43 C 831.64 618.93, 831.53 619.11, 829.61 620.93 C 828.11 622.35, 827.27 623.52, 826.34 625.5 C 825.64 626.97, 824.39 629.07, 823.55 630.17 C 822.71 631.26, 821.7 633.06, 821.31 634.17 C 820.91 635.27, 820.36 636.82, 820.07 637.61 C 819.48 639.25, 816.02 643.14, 813.18 645.32 C 811.56 646.57, 811.09 647.23, 809.42 650.59 C 807.81 653.82, 807.24 654.62, 805.9 655.63 C 805.01 656.29, 803.72 657.74, 803.02 658.85 C 802.32 659.96, 801.2 661.34, 800.54 661.92 C 799.88 662.5, 798.82 663.79, 798.18 664.8 C 796.78 666.98, 796.16 667.45, 793.48 668.34 C 790.14 669.45, 788.8 670.52, 786.18 674.17 C 783.48 677.92, 782.58 678.65, 779.4 679.69 C 776.27 680.71, 775.45 681.26, 774.18 683.17 C 772.67 685.43, 771.81 686.16, 769.7 686.99 C 768.71 687.38, 767.14 688.2, 766.2 688.82 C 764.4 690.02, 761.09 691.66, 760.46 691.66 C 760.25 691.67, 758.9 692.05, 757.46 692.52 C 755.59 693.13, 754.15 693.9, 752.46 695.19 C 751.16 696.18, 749.06 697.47, 747.8 698.03 C 742.91 700.23, 743.1 701.36, 748.73 703.61 C 750.14 704.17, 754.38 706.21, 758.14 708.14 C 762.79 710.53, 765.97 711.93, 768.05 712.51 C 769.73 712.99, 771.64 713.65, 772.3 713.98 C 774.43 715.06, 776.6 715.65, 779.73 716.01 C 783.64 716.45, 785.17 717.14, 786.97 719.3 C 788.71 721.38, 789.55 721.84, 792.17 722.16 C 794.73 722.47, 795.94 722.98, 797.59 724.47 C 799.27 725.99, 800.48 726.49, 804.18 727.18 C 808.47 727.98, 809.28 728.51, 811.12 731.73 C 812.2 733.63, 812.86 734.12, 815.52 735.01 C 816.66 735.38, 818.37 736.28, 819.33 737 C 821.33 738.49, 823.1 739.14, 826.66 739.66 C 830.14 740.18, 830.91 740.72, 832.59 743.83 C 833.37 745.28, 834.42 746.9, 834.92 747.42 C 836.28 748.85, 839.38 750.17, 843.77 751.21 L 847.7 752.15 849.93 751.57 C 853.67 750.59, 855.36 749.6, 856.55 747.66 C 857.12 746.72, 858.84 744.66, 860.37 743.09 C 862.45 740.94, 863.66 739.99, 865.19 739.3 C 867.01 738.47, 869.33 736.45, 869.33 735.69 C 869.33 735.53, 870.2 734.43, 871.25 733.23 C 872.3 732.04, 873.64 730.48, 874.21 729.77 C 874.79 729.05, 876.17 727.98, 877.29 727.38 C 879.05 726.44, 879.5 725.99, 880.67 723.99 C 881.41 722.73, 882.54 721.29, 883.18 720.8 C 883.81 720.32, 884.89 719.17, 885.56 718.25 C 886.23 717.33, 887.55 716.09, 888.48 715.49 C 890.76 714.02, 891.32 713.34, 893.15 709.76 C 894.41 707.31, 895.05 706.44, 896.33 705.51 C 899.55 703.14, 902.44 699.17, 903.5 695.65 C 904.15 693.52, 904.82 692.65, 908.07 689.78 C 908.92 689.02, 909.47 688.08, 910 686.5 C 910.63 684.6, 911.09 683.94, 913.31 681.73 C 915.58 679.47, 915.98 678.88, 916.66 676.83 C 917.69 673.69, 918.13 672.88, 920.09 670.52 C 921.02 669.41, 922.16 667.68, 922.64 666.67 C 923.12 665.66, 924.06 663.93, 924.72 662.83 C 926.02 660.69, 927.2 657.51, 928.36 653.06 C 928.96 650.78, 929.46 649.76, 931.16 647.39 C 933.8 643.7, 933.77 643.77, 934.8 639.88 C 935.28 638.08, 935.97 636.17, 936.34 635.65 C 937.91 633.45, 938.69 631.06, 939.2 626.94 C 939.49 624.57, 940.06 621.85, 940.55 620.5 C 941.01 619.22, 941.73 617.04, 942.14 615.65 C 942.54 614.27, 943.45 611.82, 944.15 610.19 C 945.04 608.12, 945.55 606.27, 945.87 603.95 C 946.25 601.23, 946.6 600.13, 947.82 597.73 C 949.93 593.57, 950.64 589.08, 951.34 575.33 C 951.71 568.22, 952.07 564.04, 953.33 552.5 C 954.05 545.97, 954.18 537.04, 953.66 530.83 C 953.49 528.82, 953.2 524.72, 953.01 521.72 C 952.82 518.73, 952.6 516.16, 952.51 516.02 C 952.26 515.61, 951 499.89, 951 497.14 C 951 494.23, 949.86 485.6, 949.14 483.06 C 948.86 482.09, 948.18 480.39, 947.61 479.28 C 946.88 477.84, 946.46 476.33, 946.13 473.97 C 945.66 470.6, 944.6 465.41, 943.95 463.33 C 943.75 462.69, 942.84 460.86, 941.93 459.27 C 940.45 456.69, 940.17 455.86, 939.33 451.6 C 938.22 446.02, 938.12 445.72, 936.52 443.41 C 935.04 441.26, 934.81 440.68, 933.83 436.67 C 932.84 432.63, 932.09 430.95, 930.26 428.61 C 929.14 427.19, 928.59 426.04, 928 423.95 C 926.97 420.26, 925.7 417.48, 924.25 415.75 C 923.59 414.98, 922.8 413.63, 922.48 412.75 C 921.4 409.74, 920.67 408.49, 918.79 406.34 C 916.81 404.07, 916.36 403.22, 915.29 399.78 C 914.85 398.34, 914.08 396.98, 912.83 395.43 C 911.83 394.18, 910.61 392.19, 910.12 391 C 909.25 388.88, 908.11 387.52, 905.6 385.61 C 904.96 385.12, 904.1 384.01, 903.69 383.14 C 903.28 382.27, 902.15 380.72, 901.18 379.7 C 900.21 378.67, 899.01 377.02, 898.51 376.03 C 898.01 375.03, 896.88 373.46, 896.01 372.53 C 895.13 371.6, 893.51 369.53, 892.39 367.93 C 891.18 366.18, 888.57 363.27, 885.83 360.6 C 883.33 358.16, 880.69 355.31, 879.96 354.25 C 879.16 353.08, 877.96 351.9, 876.88 351.21 C 875.91 350.59, 874.35 349.2, 873.41 348.13 C 872.46 347.05, 871.23 345.87, 870.66 345.5 C 870.09 345.13, 868.88 343.82, 867.97 342.57 C 866.9 341.11, 865.64 339.88, 864.43 339.1 C 863.39 338.44, 861.59 337.01, 860.43 335.93 C 859.26 334.85, 857.19 333.25, 855.83 332.37 C 854.42 331.47, 852.83 330.11, 852.16 329.22 C 851.3 328.1, 850.29 327.32, 848.6 326.47 C 847.25 325.79, 845.69 324.67, 844.93 323.83 C 844.2 323.03, 842.65 321.9, 841.45 321.31 C 840.26 320.72, 838.3 319.33, 837.08 318.23 C 835.19 316.51, 830.83 314, 829.75 314 C 829.59 314, 828.68 313.33, 827.73 312.52 C 826.77 311.71, 824.31 310.22, 822.25 309.22 C 819.47 307.86, 818.07 306.95, 816.84 305.68 C 815.35 304.16, 814.83 303.87, 811.97 302.99 C 810.21 302.45, 808.26 301.63, 807.64 301.18 C 805.09 299.34, 803.07 298.34, 800.52 297.66 C 796.82 296.67, 795.14 295.88, 793.49 294.36 C 791.38 292.41, 790.55 292.11, 784.96 291.17 C 778.77 290.13, 778.14 289.94, 775.96 288.44 C 773.44 286.71, 772.33 286.34, 767.96 285.8 C 763.12 285.2, 760.4 284.39, 758 282.82 C 756.99 282.17, 755.65 281.41, 755.02 281.14 C 753.17 280.35, 748.5 279.67, 744.95 279.67 C 741.18 279.67, 733.21 278.63, 729.61 277.66 C 724.97 276.42, 722.81 276.06, 716.5 275.45 C 711.13 274.93, 707.04 274.83, 689.5 274.83 C 666.5 274.83, 663.82 275, 656.34 276.85 C 651.14 278.14, 646.98 278.78, 639.5 279.47 C 633.52 280.02, 631.77 280.52, 627.52 282.83 C 624.19 284.65, 621.48 285.48, 616.68 286.16 C 612.17 286.79, 611.36 287.04, 608.7 288.62 C 606.09 290.18, 605.34 290.42, 600.34 291.34 C 595.57 292.23, 594.71 292.59, 592.47 294.63 C 591.06 295.93, 590.09 296.47, 587.92 297.18 C 585.11 298.11, 581.63 299.75, 579.83 300.99 C 579.28 301.37, 576.95 302.27, 574.65 303 L 570.46 304.32 568.61 306.41 C 567.01 308.23, 566.46 308.61, 564.47 309.29 C 562.05 310.12, 560.95 310.77, 558.97 312.51 C 558.31 313.1, 557.03 313.84, 556.13 314.16 C 552.42 315.5, 551.2 316.27, 550.01 318.03 C 549.05 319.44, 548.4 319.96, 546.28 321 C 544.87 321.7, 542.76 323.09, 541.58 324.09 C 540.4 325.09, 538.32 326.44, 536.94 327.1 C 534.81 328.13, 534.27 328.57, 533.21 330.16 C 532.45 331.32, 531.32 332.44, 530.24 333.14 C 529.28 333.75, 527.85 335.02, 527.06 335.97 C 526.26 336.91, 524.91 338.04, 524.06 338.47 C 522.34 339.34, 521.59 340.07, 520.47 341.93 C 520.05 342.61, 518.92 343.69, 517.94 344.34 C 516.89 345.04, 515.67 346.26, 514.94 347.34 C 514.21 348.42, 513 349.64, 511.94 350.34 C 510.86 351.05, 509.68 352.25, 508.92 353.38 C 508.23 354.41, 507.02 355.76, 506.21 356.37 C 505.41 356.99, 504.22 358.36, 503.55 359.42 C 502.89 360.49, 501.87 361.61, 501.29 361.93 C 499.44 362.93, 497.98 364.39, 497.1 366.14 C 496.63 367.07, 495.53 368.61, 494.67 369.56 C 493.8 370.51, 492.39 372.65, 491.53 374.3 C 490.68 375.96, 489.37 378.02, 488.64 378.86 C 487.91 379.71, 486.87 381.28, 486.33 382.34 C 485.75 383.49, 484.78 384.74, 483.95 385.39 C 481.35 387.46, 480.79 388.24, 479.68 391.36 C 478.83 393.72, 478.21 394.83, 476.97 396.2 C 475.03 398.34, 474.59 399.17, 473.48 402.67 C 472.81 404.78, 472.28 405.75, 471.06 407.1 C 469.09 409.28, 468.27 410.62, 467.33 413.23 C 466.13 416.59, 464.9 417.12, 463.9 414.73 C 463.05 412.71, 462.95 411.76, 462.96 405.85 C 462.96 402.28, 462.79 399.27, 462.48 397.68 C 462.22 396.3, 462 393.52, 462 391.5 C 462 384.42, 461.28 378.96, 459.67 373.83 C 458.45 369.92, 457.83 366.72, 457.01 360 C 456.15 353.02, 455.95 352.18, 454.16 348.33 C 453.15 346.16, 452.27 343.41, 451.35 339.58 C 449.94 333.71, 449.56 332.79, 447.17 329.42 C 446.17 328, 445.39 326.33, 444.71 324.16 C 444.04 321.98, 443.31 320.42, 442.41 319.23 C 440.79 317.09, 439.98 315.5, 439.04 312.67 C 438.28 310.35, 437.94 309.75, 435.8 306.95 C 435.04 305.97, 434.09 304.27, 433.67 303.17 C 432.16 299.14, 431.49 297.9, 430.42 297.08 C 429.82 296.62, 428.79 295.22, 428.13 293.97 C 427.25 292.29, 426.46 291.34, 425.13 290.33 C 423.72 289.27, 423.04 288.42, 422.02 286.4 C 420.25 282.95, 419.63 282.09, 417.95 280.76 C 417.16 280.13, 416.03 278.92, 415.43 278.06 C 414.83 277.2, 413.48 275.81, 412.42 274.98 C 411.37 274.14, 409.89 272.57, 409.15 271.49 C 408.17 270.06, 407.25 269.19, 405.79 268.34 C 403.87 267.22, 402.25 265.86, 395.61 259.8 C 393.57 257.94, 391.86 256.72, 390.08 255.86 C 388.66 255.17, 386.82 253.95, 386 253.15 C 384.98 252.16, 383.65 251.35, 381.83 250.63 C 378.66 249.35, 377.04 248.34, 376.06 247.01 C 375 245.58, 372.88 244.47, 369.67 243.68 C 368.02 243.28, 366.13 242.54, 365.17 241.93 C 362 239.91, 360.03 239.07, 357.6 238.68 C 353.3 237.99, 351.86 237.45, 350.06 235.82 C 349.13 234.99, 347.73 234.09, 346.94 233.82 C 346.15 233.55, 342.28 232.89, 338.33 232.35 C 334.39 231.81, 330.12 231.05, 328.83 230.67 C 318.17 227.47, 318.46 227.5, 297.17 227.51 C 278.02 227.52, 276 227.66, 268.34 229.51 C 264.83 230.36, 261.34 230.92, 253.67 231.84 C 245.03 232.87, 244.07 233.02, 242.41 233.51 C 241.48 233.78, 239.82 234.69, 238.72 235.51 C 236.44 237.22, 234.62 237.93, 229.76 238.97 C 225.95 239.78, 224.31 240.38, 222.83 241.48 C 221.15 242.75, 219.91 243.26, 216.33 244.17 C 212.06 245.25, 211.25 245.67, 209.98 247.41 C 208.71 249.16, 207.72 249.82, 205 250.69 C 203.73 251.09, 202.05 251.98, 200.94 252.84 C 198.7 254.56, 197.09 255.4, 194.87 256 C 193.25 256.44, 191.53 257.84, 190.23 259.78 C 189.9 260.27, 188.72 261.14, 187.61 261.7 C 186.5 262.26, 184.57 263.67, 183.33 264.84 C 182.09 266.01, 180.04 267.62, 178.78 268.43 C 177.53 269.24, 175.7 270.82, 174.73 271.95 C 173.75 273.08, 172.31 274.37, 171.53 274.83 C 170.74 275.29, 169.46 276.42, 168.69 277.35 C 167.91 278.27, 166.47 279.62, 165.49 280.34 C 164.17 281.32, 163.4 282.24, 162.52 283.91 C 161.87 285.15, 160.35 287.26, 159.16 288.61 C 157.96 289.95, 156.37 291.86, 155.62 292.86 C 154.22 294.71, 153.01 295.36, 152.03 294.78 C 151.01 294.17, 150 291.58, 149.92 289.32 C 149.87 288.14, 149.91 223.42, 150 145.5 C 150.14 24.36, 150.1 3.56, 149.7 1.92 L 149.23 0 78.48 0 L 7.73 0 7.11 1.58 M 334.88 511.95 C 334.57 512.29, 333.98 513.45, 333.58 514.54 C 332.87 516.41, 332.83 516.95, 332.86 526.33 L 332.88 536.17 333.97 540.67 C 334.98 544.84, 335.63 547.27, 336.84 551.5 C 337.45 553.62, 338.28 561.52, 338.67 568.83 C 338.94 573.9, 339.64 580.46, 340.21 583.14 C 340.32 583.67, 340.98 585.29, 341.68 586.73 C 342.46 588.34, 343.09 590.27, 343.32 591.76 C 343.52 593.08, 343.92 595.14, 344.21 596.33 C 344.49 597.53, 345.09 600.15, 345.53 602.17 C 346.12 604.82, 346.67 606.36, 347.51 607.73 C 349.16 610.4, 349.58 611.8, 350.19 616.61 C 350.84 621.71, 351.7 624.43, 354.13 629.02 C 355.14 630.93, 356.48 633.86, 357.12 635.53 C 357.75 637.2, 358.97 639.93, 359.81 641.59 C 360.79 643.51, 361.55 645.58, 361.88 647.23 C 363.34 654.59, 363.36 654.65, 364.51 656.09 C 366.48 658.55, 367.24 660.09, 367.83 662.83 C 368.39 665.44, 368.46 665.55, 370.67 667.68 C 372.82 669.75, 372.98 670.02, 373.84 672.85 C 375.01 676.69, 375.67 677.96, 377.61 680.11 C 378.6 681.19, 379.49 682.64, 379.97 683.93 C 380.4 685.07, 381.3 686.64, 381.98 687.42 C 383.77 689.48, 385.06 691.47, 386.63 694.59 C 387.39 696.11, 388.51 697.91, 389.11 698.59 C 389.72 699.27, 390.56 700.36, 391 701 C 391.43 701.64, 392.56 703, 393.52 704.02 C 395.53 706.16, 396.23 707.45, 397.5 711.33 C 398.34 713.9, 398.62 714.35, 400.52 716.17 C 401.67 717.27, 402.85 718.66, 403.15 719.26 C 404.08 721.13, 409.86 727.15, 411.67 728.14 C 412.59 728.64, 413.75 729.59, 414.25 730.26 C 414.76 730.93, 416.18 732.53, 417.42 733.81 C 418.65 735.09, 419.67 736.26, 419.67 736.39 C 419.67 736.89, 421.84 739.11, 423.58 740.39 C 424.55 741.11, 425.74 742.33, 426.22 743.1 C 426.7 743.87, 428.46 745.83, 430.13 747.46 C 432.44 749.72, 433.73 750.69, 435.5 751.51 C 438.3 752.8, 442.84 757.04, 444.11 759.56 C 445.16 761.63, 445.64 762.04, 448.67 763.44 C 450.82 764.43, 451.72 765.15, 455.17 768.65 C 457.37 770.89, 459.55 772.92, 460.01 773.16 C 460.48 773.41, 462.07 774, 463.55 774.48 C 466.44 775.42, 466.94 775.83, 468.77 778.73 C 469.47 779.84, 470.43 780.87, 471.07 781.2 C 471.67 781.51, 473.25 782.48, 474.58 783.35 C 476.81 784.81, 479.24 785.95, 483.49 787.5 C 484.4 787.84, 485.83 788.73, 486.66 789.48 C 487.49 790.24, 488.77 791.3, 489.5 791.83 C 490.23 792.37, 491.59 793.52, 492.52 794.4 C 494.55 796.3, 495.59 796.76, 499.89 797.69 C 501.69 798.08, 504.14 798.77, 505.33 799.21 C 508.65 800.46, 513.61 803.57, 515.67 805.69 C 517.96 808.07, 518.29 808.23, 522.41 809.03 C 527.13 809.95, 532.26 811.28, 533.46 811.9 C 534.02 812.19, 535.64 813.38, 537.07 814.54 C 540.05 816.96, 541.54 817.79, 544.83 818.85 C 546.12 819.27, 548.23 819.99, 549.53 820.46 C 551.1 821.03, 553.4 821.48, 556.37 821.79 C 561.06 822.29, 562.64 822.76, 565.68 824.56 C 566.7 825.17, 568.8 826.1, 570.35 826.63 C 571.9 827.16, 573.98 827.91, 574.97 828.31 C 575.96 828.71, 577.83 829.25, 579.13 829.52 C 580.44 829.78, 582.8 830.61, 584.4 831.36 C 587.1 832.63, 587.58 832.74, 591.4 833 C 596.85 833.37, 605.66 834.58, 607.4 835.19 C 608.16 835.46, 609.25 836.03, 609.81 836.46 C 611.6 837.82, 612.83 838.29, 615.87 838.78 C 617.5 839.05, 620.01 839.73, 621.44 840.3 C 623.4 841.09, 624.8 841.4, 627.11 841.55 C 629.34 841.7, 630.84 842.03, 632.67 842.74 C 634.65 843.53, 635.99 843.79, 639.17 844.02 C 641.37 844.18, 644 844.47, 645.02 844.66 C 646.04 844.85, 651.14 845.15, 656.35 845.31 C 665 845.58, 671.65 846.14, 676.24 846.98 C 677.41 847.19, 678.55 847.72, 679.74 848.61 C 682.33 850.54, 682.69 850.66, 686.42 851 C 688.3 851.16, 690.81 851.62, 692 852 C 693.19 852.39, 695.37 852.98, 696.83 853.33 C 698.3 853.67, 700.85 854.4, 702.5 854.95 C 704.74 855.7, 707.1 856.13, 711.83 856.66 C 721.93 857.78, 723.42 858.19, 726.95 860.7 C 728.81 862.02, 729.91 862.34, 734.97 862.97 C 737.34 863.27, 738.38 863.63, 741.8 865.33 C 745.18 867.02, 746.64 867.52, 750.83 868.48 C 756.88 869.85, 757.04 869.91, 760.26 871.97 C 763.43 874, 764.02 874.23, 768.07 875.01 C 771.68 875.7, 772.22 875.93, 774.24 877.56 C 776.06 879.03, 777.2 879.48, 780.8 880.15 C 784.26 880.8, 785.72 881.47, 787.33 883.17 C 788.74 884.65, 790.23 885.44, 792.67 886 C 795.26 886.6, 796.8 887.46, 798.03 888.99 C 799.38 890.66, 801.15 891.51, 804.28 891.98 C 807.78 892.51, 808.69 892.99, 810.37 895.21 C 811.61 896.85, 812.3 897.39, 814.61 898.54 C 816.13 899.29, 818 900.51, 818.77 901.25 C 820.28 902.71, 821.87 903.59, 824.52 904.46 C 825.65 904.83, 826.69 905.51, 827.69 906.54 C 828.5 907.38, 830.07 908.67, 831.17 909.42 C 832.27 910.16, 833.95 911.5, 834.9 912.39 C 835.98 913.39, 837.86 914.59, 839.86 915.55 C 842.71 916.93, 843.18 917.27, 843.96 918.63 C 844.44 919.47, 845.38 920.69, 846.05 921.33 C 848.9 924.06, 851.4 926.09, 852.9 926.88 C 855.11 928.05, 855.94 928.88, 856.92 930.94 C 857.52 932.19, 858.28 933.1, 859.48 933.99 C 860.42 934.68, 861.6 935.79, 862.11 936.45 C 862.61 937.11, 863.73 938.05, 864.59 938.55 C 866.84 939.82, 867.91 940.9, 869.05 943.04 C 869.59 944.07, 870.48 945.23, 871.02 945.63 C 871.56 946.03, 872.62 947.14, 873.37 948.09 C 874.12 949.05, 875.35 950.25, 876.11 950.77 C 878.25 952.22, 878.67 952.69, 879.74 954.83 C 880.28 955.93, 881.52 957.66, 882.5 958.67 C 886.65 962.99, 890.42 967.86, 891.74 970.64 C 892.68 972.6, 893.64 974, 894.96 975.3 C 896.55 976.88, 896.98 977.59, 897.8 979.95 C 898.42 981.75, 899.25 983.32, 900.13 984.4 C 902.31 987.06, 902.7 987.85, 903.53 991.17 C 904.44 994.87, 904.95 995.93, 906.69 997.82 C 908.28 999.55, 908.87 1000.89, 909.16 1003.5 C 909.67 1008.01, 910.89 1009.93, 914.39 1011.7 C 917.24 1013.14, 918.32 1012.99, 919.31 1011.04 C 920.62 1008.47, 920.76 1006.43, 920.8 990.33 C 920.84 971.47, 920.54 968.12, 918.37 963.41 C 917.06 960.58, 916.98 960.19, 915.86 951.43 C 915.22 946.46, 914.46 941.82, 914.18 941.14 C 913.89 940.45, 913 939.19, 912.21 938.34 C 910.62 936.64, 910.24 935.71, 909.65 932.01 C 909.11 928.65, 908.24 926.24, 906.86 924.33 C 905.26 922.1, 904.53 920.57, 903.67 917.67 C 902.73 914.51, 901.9 912.87, 900.33 911.08 C 899.64 910.3, 898.73 908.73, 898.31 907.6 C 897.75 906.12, 896.98 904.96, 895.6 903.52 C 893.56 901.39, 893.13 900.46, 892.15 896.08 C 891.54 893.32, 890.72 892.15, 888.5 890.85 C 887.49 890.26, 886.49 889.21, 885.39 887.57 C 884.5 886.25, 883 884, 882.04 882.58 C 881.09 881.16, 879.44 879.06, 878.39 877.91 C 877.33 876.77, 875.83 875.01, 875.05 874 C 874.27 872.99, 872.7 871.41, 871.56 870.49 C 869.81 869.06, 869.26 868.33, 867.9 865.59 C 866.62 863.02, 865.85 861.96, 864.05 860.26 C 862.61 858.91, 861.21 857.92, 860.15 857.53 C 857.7 856.62, 855.5 855.13, 854.03 853.37 C 853.23 852.42, 851.79 851.3, 850.32 850.49 C 848.91 849.72, 847.43 848.59, 846.75 847.76 C 845.18 845.84, 843.91 845.12, 840.65 844.31 C 836.93 843.38, 835.71 842.7, 834.35 840.78 C 832.72 838.49, 829.68 835.36, 828.5 834.75 C 827.95 834.46, 825.77 833.67, 823.67 832.98 C 818.63 831.33, 812.81 829.02, 811.27 828.07 C 810.59 827.65, 809.27 826.42, 808.34 825.34 C 806.24 822.92, 804.9 822.36, 798.26 821.15 C 790.45 819.73, 789.68 819.48, 787.1 817.51 C 784.05 815.19, 783.21 814.78, 780.47 814.31 C 777.8 813.85, 776.97 813.48, 775.03 811.86 C 773.42 810.51, 772.2 810.13, 768.67 809.83 C 762.22 809.28, 753.72 808.28, 752.67 807.94 C 752.02 807.73, 750.57 807.14, 749.43 806.63 C 748.08 806.03, 746.34 805.59, 744.43 805.38 C 742.82 805.2, 740.26 804.65, 738.74 804.17 C 737.22 803.69, 734.59 803.18, 732.89 803.04 C 730.2 802.81, 729.44 802.6, 727.08 801.39 C 725.2 800.44, 723.62 799.9, 721.93 799.65 C 720.59 799.45, 718.25 799.08, 716.72 798.82 C 715.2 798.56, 710.1 798.05, 705.39 797.68 C 684.4 796.05, 673.22 794.8, 669.21 793.62 C 667.95 793.25, 664.88 792.74, 662.38 792.48 C 659.88 792.23, 657.31 791.86, 656.67 791.67 C 656.03 791.48, 653.69 791.12, 651.47 790.87 C 648.16 790.5, 646.96 790.2, 644.8 789.23 C 642.83 788.35, 641.37 787.96, 639 787.68 C 637.26 787.48, 634.93 787.09, 633.83 786.82 C 632.73 786.55, 629.36 786.17, 626.33 785.98 C 615.35 785.3, 611.65 784.8, 608.44 783.55 C 606.82 782.93, 604.6 782.31, 603.5 782.19 C 602.4 782.07, 599.92 781.53, 598 781 C 596.07 780.47, 593.57 779.88, 592.44 779.7 C 589.92 779.31, 588.58 778.64, 587.59 777.3 C 586.21 775.42, 584.4 774.65, 580.6 774.31 C 573.14 773.64, 567.64 772.28, 563.3 770.03 C 561.54 769.11, 559.07 768.11, 557.8 767.8 C 554.94 767.1, 554.05 766.65, 551.79 764.81 C 549.83 763.22, 548.1 762.6, 543.83 761.99 C 540.49 761.5, 539.18 760.97, 537.5 759.38 C 535.46 757.46, 535.29 757.38, 532.53 756.85 C 529.64 756.3, 528.4 755.64, 526.59 753.69 C 524.95 751.94, 523.9 751.43, 520.23 750.63 C 516.54 749.83, 514.85 749.06, 513.32 747.49 C 512.44 746.58, 511.52 746.11, 509.34 745.45 C 506.73 744.66, 506.33 744.42, 504.43 742.47 C 502.15 740.15, 501.28 739.68, 497.71 738.87 C 493.92 738, 492.84 737.44, 491.12 735.43 C 489.86 733.96, 488.98 733.32, 486.83 732.33 C 485.17 731.57, 483.32 730.37, 482.05 729.24 C 480.52 727.87, 479.33 727.16, 477.44 726.47 C 473.81 725.14, 469.41 721.8, 467.29 718.75 C 466.5 717.62, 465.73 717.07, 463.4 715.99 C 458.45 713.68, 458.25 713.55, 456.69 711.57 C 455.85 710.52, 454.55 709.21, 453.8 708.67 C 453.05 708.13, 452.04 707.11, 451.55 706.41 C 451.07 705.71, 450.06 704.77, 449.32 704.32 C 446.27 702.48, 445.79 702.08, 444.77 700.52 C 442.95 697.75, 438.4 693.43, 435.91 692.11 C 434.25 691.23, 433.34 690.46, 432.43 689.21 C 431.76 688.27, 430.42 686.79, 429.46 685.91 C 428.5 685.04, 427.39 683.81, 427 683.17 C 426.61 682.54, 425.44 681.51, 424.4 680.87 C 422.33 679.61, 421.15 678.47, 420.07 676.67 C 419.69 676.03, 418.83 674.97, 418.16 674.33 C 417.48 673.69, 416.43 672.39, 415.82 671.44 C 415.1 670.32, 414.15 669.4, 413.1 668.8 C 410.79 667.48, 410.37 667.05, 409.27 664.87 C 408.73 663.8, 407.64 662.22, 406.86 661.37 C 406.08 660.53, 404.8 658.95, 404.01 657.87 C 403.22 656.79, 401.83 655.08, 400.91 654.07 C 399.88 652.93, 398.71 651.07, 397.82 649.16 C 396.68 646.7, 396.06 645.81, 394.68 644.64 C 393.64 643.77, 392.47 642.32, 391.74 641.01 C 391.07 639.81, 389.87 637.93, 389.06 636.83 C 388.26 635.73, 386.92 633.42, 386.09 631.69 C 385.26 629.96, 383.94 627.86, 383.16 627.02 C 382.39 626.19, 381.22 624.44, 380.57 623.15 C 379.93 621.86, 378.74 620.06, 377.94 619.15 C 375.85 616.79, 375.43 616.02, 374.63 613.1 C 373.76 609.9, 373.14 608.68, 371.19 606.34 C 370.22 605.17, 369.41 603.72, 368.95 602.34 C 367.99 599.41, 367.13 597.74, 365.8 596.27 C 364.22 594.49, 363.49 592.89, 362.5 588.99 C 361.55 585.26, 361.29 584.66, 359.33 581.62 C 358.61 580.5, 357.62 578.29, 357.14 576.71 C 356.02 573.03, 354.93 570.44, 353.66 568.43 C 352.41 566.46, 351.84 564.61, 351 559.67 C 350.09 554.39, 349.87 553.75, 348.15 551.13 C 346.48 548.58, 346.21 547.76, 345.66 543.71 C 345.25 540.62, 343.2 534.41, 341.42 530.85 C 339.65 527.33, 339.35 526.23, 338.81 521.37 C 338.27 516.5, 337.84 514.38, 337.07 512.83 C 336.27 511.23, 335.73 511.01, 334.88 511.95 M 146.64 598.87 C 145.91 599.74, 146.04 603.25, 146.84 604.6 C 147.52 605.74, 148.81 606.32, 149.38 605.75 C 149.79 605.35, 149.2 600.67, 148.58 599.38 C 148.07 598.32, 147.27 598.11, 146.64 598.87 M 390.62 798.86 C 388.56 799.49, 388.33 800.34, 389.87 801.61 C 390.98 802.52, 393.49 803.33, 395.21 803.33 C 397.02 803.33, 399.05 802.58, 399.42 801.78 C 399.72 801.12, 399.65 800.86, 398.99 800.16 C 397.45 798.52, 393.64 797.93, 390.62 798.86"/>
</svg>
