<?xml version="1.0" encoding="UTF-8"?>
<svg xmlns="http://www.w3.org/2000/svg" viewBox="0 0 965 1024" width="965" height="1024">
  <path fill="#59FFA2" fill-rule="evenodd" d="M 774.97 869.98 C 774.13 870.14, 772.97 870.51, 772.4 870.8 C 771.29 871.37, 771.27 871.92, 772.28 873.1 C 772.57 873.43, 772.81 874.31, 772.83 875.05 C 772.86 876.17, 773.07 876.58, 774.02 877.38 C 774.65 877.91, 775.59 878.58, 776.11 878.87 C 777.55 879.65, 781.56 880.4, 784.07 880.36 C 786.02 880.33, 786.35 880.41, 786.68 881.02 C 786.88 881.4, 786.98 881.91, 786.89 882.15 C 786.69 882.67, 788.42 884.39, 789.83 885.08 C 790.38 885.36, 791.66 885.77, 792.67 886 C 795.26 886.6, 796.8 887.46, 798.03 888.99 C 799.6 890.95, 801.34 891.67, 804.46 891.67 C 807.56 891.67, 808.74 892.19, 809.65 893.96 C 810.8 896.22, 812.03 897.37, 814.55 898.51 C 815.88 899.12, 817.69 900.28, 818.57 901.1 C 820.44 902.83, 823.07 904.05, 827 905 C 828.56 905.37, 830.15 905.82, 830.53 905.98 C 831.34 906.32, 833 908.98, 833 909.93 C 833 910.99, 836.43 913.92, 839.21 915.24 C 841.54 916.35, 841.79 916.4, 842.17 915.89 C 842.77 915.07, 843.49 915.21, 844.64 916.36 C 845.83 917.55, 845.93 918.17, 845 918.67 C 844.37 919, 844.36 919.09, 844.83 920 C 845.11 920.54, 845.88 921.39, 846.55 921.9 C 847.22 922.42, 848.64 923.62, 849.71 924.58 C 851.54 926.22, 853.72 927.49, 855.13 927.73 C 855.85 927.85, 856.09 928.24, 856.71 930.33 C 857 931.28, 857.63 932.25, 858.44 933 C 859.14 933.64, 860.67 935.1, 861.82 936.25 C 863.52 937.94, 864.12 938.33, 864.99 938.33 C 867.34 938.33, 869.45 940.25, 869.32 942.26 C 869.22 943.78, 869.27 943.85, 871.42 946.08 C 872.56 947.26, 874.08 948.85, 874.78 949.61 C 875.83 950.74, 876.17 950.93, 876.67 950.66 C 877.9 950.01, 879.17 950.28, 879.97 951.37 C 880.67 952.31, 880.7 952.52, 880.34 953.83 C 879.84 955.6, 880.09 956.15, 882.5 958.67 C 886.69 963.03, 890.42 967.87, 891.74 970.64 C 892.68 972.6, 893.64 974, 894.96 975.3 C 896.55 976.88, 896.98 977.59, 897.8 979.95 C 898.87 983.04, 900.93 986, 902.02 986 C 902.92 986, 903.42 987.34, 903.52 990 C 903.62 992.87, 904.69 995.58, 906.52 997.62 C 908.31 999.6, 908.86 1000.84, 909.16 1003.5 C 909.47 1006.28, 910.18 1008.34, 911.2 1009.44 C 911.96 1010.27, 912.21 1010.34, 913.5 1010.15 C 915.48 1009.85, 916.23 1010.17, 916.72 1011.52 C 916.95 1012.15, 917.24 1012.67, 917.37 1012.67 C 918.11 1012.67, 918.76 1012.11, 919.31 1011.04 C 920.62 1008.47, 920.76 1006.43, 920.8 990.33 C 920.84 971.48, 920.54 968.12, 918.37 963.41 C 917.18 960.83, 916.95 959.91, 916.34 955.17 C 915.96 952.23, 915.5 949.38, 915.33 948.83 C 915.15 948.28, 914.94 946.62, 914.86 945.13 C 914.68 941.85, 914.11 940.37, 912.21 938.34 C 910.6 936.62, 910.22 935.68, 909.64 931.92 C 909.24 929.31, 908.85 928.81, 908 929.83 C 907.36 930.6, 906.84 930.45, 905.18 929.01 C 903.1 927.21, 900.9 926.58, 897.64 926.86 C 895.49 927.04, 894.93 926.98, 893.79 926.4 C 893.06 926.02, 892.27 925.49, 892.04 925.22 C 891.41 924.46, 891.27 923.06, 891.7 921.86 C 892.22 920.43, 891.85 918.62, 890.92 918 C 890.4 917.65, 888.91 917.45, 886.13 917.33 C 882.25 917.17, 881.98 917.11, 879.69 915.92 C 877.42 914.73, 877.15 914.67, 874.14 914.67 C 871.22 914.67, 870.91 914.6, 870.15 913.85 C 869.39 913.09, 869.34 912.84, 869.42 909.87 L 869.5 906.7 868 905.16 C 865.8 902.89, 865.22 902.67, 861.6 902.76 C 859.06 902.82, 858.3 902.72, 857.56 902.23 C 856.08 901.27, 855.79 900.26, 856.42 898.29 C 857.45 895.06, 856.07 894, 850.82 894 C 848.1 894, 847.05 893.83, 844.37 892.97 C 841.63 892.08, 840.85 891.96, 838.97 892.13 C 835.98 892.4, 833.74 891.72, 832.33 890.12 C 831.5 889.17, 831.32 888.72, 831.49 888.04 C 831.6 887.56, 831.79 886.39, 831.89 885.44 C 832.07 883.75, 832.05 883.69, 830.96 883 C 829.97 882.38, 829.52 882.32, 827.3 882.5 C 825.29 882.66, 824.17 882.55, 821.96 881.99 C 820.14 881.52, 817.79 881.23, 815.2 881.14 C 813.02 881.07, 810.32 880.84, 809.2 880.64 C 808.08 880.43, 805.25 880.23, 802.92 880.2 C 799.21 880.14, 798.55 880.05, 797.75 879.45 C 796.42 878.46, 796.14 877.37, 796.65 875.22 C 797.54 871.52, 796.54 870.67, 791.27 870.66 C 789.38 870.65, 787.23 870.5, 786.5 870.32 C 784.68 869.86, 776.85 869.63, 774.97 869.98 M 906.86 932.39 C 906.1 933.48, 906.17 935.55, 906.98 935.99 C 907.84 936.45, 909.33 935.78, 909.33 934.93 C 909.33 934.16, 908.55 932.59, 907.89 932.04 C 907.48 931.71, 907.3 931.77, 906.86 932.39"/>
</svg>
