<?xml version="1.0" encoding="UTF-8"?>
<svg xmlns="http://www.w3.org/2000/svg" viewBox="0 0 880 229" width="880" height="229">
  <path fill="#000000" fill-rule="evenodd" d="M 325.18 1.56 C 319.34 3.66, 315.3 9.76, 315.77 15.79 C 315.87 17.1, 316.27 19.19, 316.66 20.44 C 317.3 22.45, 317.68 23.01, 320.01 25.35 C 321.52 26.86, 323.04 28.07, 323.58 28.2 C 324.08 28.32, 325.17 28.8, 325.99 29.27 C 327.14 29.92, 328.1 30.15, 330.08 30.27 C 332.45 30.41, 332.86 30.33, 334.76 29.41 C 335.9 28.86, 337.19 28.3, 337.62 28.17 C 339.73 27.53, 342.91 24.46, 344.17 21.82 C 345.08 19.92, 345.13 19.62, 345.12 15.17 C 345.11 10.52, 345.11 10.49, 343.99 8.33 C 343.37 7.14, 342.33 5.68, 341.68 5.09 C 341.03 4.49, 340.13 3.65, 339.67 3.21 C 339.21 2.76, 337.7 2.01, 336.31 1.53 C 332.84 0.34, 328.55 0.35, 325.18 1.56 M 118.43 11.99 C 115.2 12.11, 113.56 12.3, 113.27 12.6 C 112.92 12.95, 112.8 20, 112.67 48.1 C 112.54 75.47, 112.41 83.33, 112.08 83.9 C 111.84 84.33, 111.19 84.73, 110.55 84.85 C 109.94 84.96, 91.29 84.99, 69.11 84.9 C 33.16 84.76, 28.68 84.69, 27.77 84.22 C 27.21 83.93, 26.65 83.44, 26.53 83.13 C 26.42 82.83, 26.33 67.06, 26.34 48.09 C 26.36 17.27, 26.31 13.51, 25.84 12.8 L 25.32 12 14.5 12 L 3.68 12 3.17 12.78 C 2.72 13.47, 2.67 22.58, 2.75 96.91 C 2.83 177.7, 2.85 180.28, 3.45 180.95 C 4.05 181.61, 4.42 181.64, 12.68 181.64 C 17.41 181.64, 22.02 181.73, 22.93 181.86 C 24.35 182.04, 24.66 181.98, 25.25 181.34 C 25.63 180.94, 26.01 180.06, 26.1 179.39 C 26.18 178.72, 26.28 162.98, 26.3 144.41 C 26.33 125.12, 26.48 110.32, 26.66 109.86 C 27.41 107.88, 24.61 108, 69.7 108 C 109.8 108, 110.95 108.02, 111.71 108.64 L 112.5 109.28 112.54 144.14 C 112.58 170.47, 112.69 179.24, 112.99 179.97 C 113.23 180.55, 113.73 181.03, 114.22 181.15 C 116.71 181.78, 133.52 181.95, 134.62 181.36 C 136.23 180.49, 136.17 182.95, 136.17 124.5 C 136.18 94.25, 136.12 56.92, 136.04 41.55 C 135.91 13.67, 135.9 13.59, 135.2 12.83 C 134.53 12.1, 134.24 12.06, 128.83 11.94 C 125.72 11.87, 121.04 11.89, 118.43 11.99 M 665.64 51.8 C 665.56 51.88, 663.7 52.12, 661.5 52.34 C 659.3 52.56, 656.87 52.96, 656.11 53.21 C 655.34 53.47, 653.55 53.82, 652.13 54 C 650.72 54.18, 649.32 54.55, 649.03 54.81 C 648.53 55.26, 646.08 56.27, 642.02 57.7 C 641.02 58.06, 639.89 58.6, 639.52 58.92 C 638.78 59.55, 637.99 60.03, 635.67 61.25 C 634.84 61.69, 634.02 62.23, 633.83 62.46 C 633.65 62.68, 632.6 63.45, 631.5 64.17 C 625.29 68.2, 615.25 79.43, 612.29 85.67 C 611.89 86.49, 611.29 87.52, 610.95 87.96 C 610.61 88.4, 610.33 89, 610.33 89.3 C 610.33 89.6, 610.05 90.37, 609.7 91.02 C 609.03 92.28, 606.76 98.75, 606.32 100.67 C 606.17 101.31, 605.8 102.51, 605.5 103.33 C 605.15 104.26, 604.75 107.2, 604.45 111 C 604.02 116.52, 604.02 117.9, 604.5 124.17 C 604.8 128.02, 605.33 132.48, 605.68 134.08 C 606.04 135.68, 606.33 137.35, 606.33 137.79 C 606.33 138.22, 606.63 138.96, 607 139.43 C 607.37 139.89, 607.99 141.3, 608.37 142.56 C 609.32 145.63, 613.09 152.89, 614.49 154.33 C 615.11 154.98, 615.72 155.92, 615.85 156.42 C 615.97 156.93, 616.41 157.6, 616.81 157.92 C 617.21 158.24, 617.98 159.11, 618.52 159.85 C 621.51 163.98, 631.23 173, 632.68 173 C 633.04 173, 633.73 173.45, 634.22 174 C 634.98 174.85, 638.73 177, 639.46 177 C 639.6 177, 640.39 177.52, 641.21 178.15 C 642.64 179.24, 644.67 180.01, 647.38 180.47 C 648.05 180.59, 649 181, 649.49 181.38 C 649.97 181.77, 650.85 182.21, 651.44 182.36 C 652.02 182.52, 653.63 182.96, 655 183.34 C 659.98 184.71, 683.97 184.56, 686.71 183.14 C 687.22 182.88, 687.96 182.67, 688.37 182.67 C 688.77 182.67, 690.05 182.22, 691.2 181.68 C 692.35 181.13, 694.02 180.51, 694.9 180.3 C 698.2 179.51, 700.45 178.6, 701.06 177.84 C 701.4 177.4, 702.24 176.87, 702.92 176.65 C 704.66 176.09, 705.96 175.35, 707.42 174.08 C 708.11 173.49, 708.82 173, 709 173 C 709.18 173, 710.31 172.16, 711.51 171.14 C 712.72 170.12, 714.14 169.14, 714.67 168.95 C 715.2 168.77, 715.93 168.11, 716.29 167.49 C 716.66 166.88, 717.41 166.14, 717.96 165.85 C 719.09 165.27, 723.13 161.38, 724.23 159.82 C 724.62 159.26, 725.34 158.59, 725.84 158.33 C 726.33 158.07, 727.01 157.3, 727.36 156.61 C 727.71 155.93, 728.54 154.95, 729.21 154.44 C 729.88 153.93, 730.64 153.02, 730.89 152.42 C 731.14 151.81, 731.95 150.77, 732.69 150.11 C 733.88 149.04, 735.99 146.22, 737.79 143.31 C 738.41 142.32, 738.4 142.3, 737.55 141.07 C 737.07 140.39, 736.38 139.65, 736.02 139.42 C 735.64 139.19, 735.18 138.34, 734.97 137.51 C 734.73 136.58, 734.29 135.83, 733.78 135.49 C 733.33 135.2, 732.06 133.58, 730.96 131.9 C 729.85 130.21, 728.61 128.46, 728.2 128 C 727.78 127.54, 727.06 126.49, 726.59 125.67 C 726.12 124.84, 725.44 123.9, 725.09 123.58 C 724.47 123.02, 724.39 123.03, 723.32 123.75 C 722.7 124.17, 721.7 125.18, 721.1 126 C 720.5 126.83, 719.44 128.1, 718.75 128.83 C 718.06 129.57, 717.13 130.83, 716.67 131.64 C 716.21 132.44, 715.15 133.87, 714.32 134.8 C 713.48 135.74, 712.52 136.95, 712.18 137.5 C 711.83 138.05, 710.94 139.04, 710.19 139.71 C 709.44 140.38, 708.63 141.28, 708.39 141.73 C 708.15 142.17, 707.45 142.81, 706.83 143.15 C 706.2 143.48, 705.32 144.33, 704.85 145.04 C 704.38 145.74, 703.58 146.53, 703.06 146.8 C 702.54 147.07, 701.71 147.91, 701.2 148.67 C 700.7 149.43, 699.81 150.25, 699.23 150.5 C 698.64 150.74, 697.83 151.39, 697.43 151.94 C 697.01 152.5, 695.72 153.4, 694.48 153.99 C 693.26 154.56, 691.49 155.6, 690.55 156.3 C 689.44 157.11, 688.01 157.78, 686.5 158.17 C 685.22 158.5, 683.49 159.12, 682.67 159.54 C 680.06 160.87, 676.46 161.43, 670.37 161.46 C 666.09 161.48, 664.42 161.35, 663 160.92 C 661.99 160.61, 660.49 160.19, 659.67 159.97 C 658.84 159.76, 657.41 159.22, 656.5 158.79 C 655.58 158.36, 654.56 158, 654.24 158 C 653.41 158, 650.08 156.27, 648.54 155.03 C 647.82 154.47, 647.05 154, 646.82 154 C 646.29 154, 641.32 150, 639.6 148.19 C 638.89 147.45, 637.85 146.04, 637.29 145.08 C 636.74 144.12, 636.01 143.18, 635.68 143.01 C 635.35 142.83, 634.85 142.12, 634.58 141.43 C 634.3 140.73, 633.75 139.88, 633.36 139.52 C 632.45 138.7, 631.44 136.42, 630.85 133.85 C 630.59 132.74, 630.09 130.93, 629.73 129.83 C 628.2 125.18, 627.83 122.69, 627.87 117.33 C 627.9 113.01, 628.03 111.82, 628.62 110.04 C 629.01 108.87, 629.33 107.64, 629.33 107.3 C 629.33 106.97, 629.62 105.9, 629.98 104.93 C 630.33 103.96, 630.78 102.55, 630.98 101.79 C 631.52 99.72, 635.91 92.61, 637.55 91.17 C 637.76 90.98, 638.13 90.43, 638.38 89.95 C 639.29 88.16, 647.35 81.48, 650 80.31 C 650.46 80.11, 651.58 79.6, 652.5 79.17 C 653.42 78.74, 654.54 78.28, 654.99 78.15 C 655.45 78.01, 656.2 77.64, 656.66 77.32 C 657.18 76.95, 658.45 76.65, 660 76.51 C 661.38 76.39, 663.85 76.08, 665.5 75.81 C 669.56 75.17, 672.46 75.21, 678.01 76 C 681.84 76.55, 683.09 76.87, 684.93 77.79 C 686.16 78.41, 688.22 79.26, 689.5 79.68 C 690.78 80.1, 692.13 80.7, 692.5 81.01 C 692.87 81.32, 694.14 82.2, 695.33 82.96 C 696.52 83.72, 698.27 85.03, 699.21 85.87 C 700.16 86.7, 701.21 87.58, 701.55 87.83 C 702.13 88.25, 703.57 89.67, 708.95 95.22 C 710.22 96.53, 711.86 98.4, 712.6 99.39 C 713.33 100.37, 714.47 101.68, 715.13 102.32 C 715.79 102.95, 716.33 103.6, 716.33 103.76 C 716.33 103.92, 717.15 105.01, 718.14 106.18 C 719.13 107.35, 720.04 108.61, 720.16 108.99 C 720.28 109.36, 720.51 109.67, 720.67 109.67 C 720.83 109.67, 721.5 110.45, 722.16 111.42 C 722.82 112.38, 724.1 114.07, 725.01 115.17 C 725.91 116.27, 726.89 117.69, 727.18 118.33 C 727.47 118.97, 728.27 120.17, 728.97 121 C 729.66 121.82, 730.48 122.99, 730.79 123.59 C 731.1 124.19, 731.65 124.86, 732.01 125.08 C 732.37 125.31, 732.67 125.68, 732.67 125.9 C 732.67 126.13, 733.1 126.8, 733.62 127.4 C 734.15 128.01, 734.81 128.95, 735.09 129.51 C 735.37 130.06, 736.22 131.19, 736.97 132.01 C 737.72 132.83, 738.33 133.7, 738.33 133.94 C 738.33 134.18, 739.05 135.15, 739.93 136.1 C 740.8 137.05, 741.74 138.26, 742 138.78 C 742.26 139.29, 742.74 139.86, 743.06 140.03 C 743.38 140.2, 743.89 140.87, 744.19 141.5 C 744.49 142.14, 744.87 142.67, 745.03 142.67 C 745.19 142.67, 745.64 143.29, 746.02 144.04 C 746.41 144.8, 747.31 146.04, 748.02 146.79 C 752.11 151.13, 752.79 151.91, 753.13 152.67 C 753.54 153.56, 754.34 154.42, 761.15 161.33 C 766.62 166.87, 769.23 169.33, 769.65 169.33 C 769.83 169.33, 770.74 170.01, 771.68 170.85 C 772.62 171.68, 773.96 172.59, 774.67 172.87 C 775.37 173.15, 776.02 173.58, 776.11 173.82 C 776.33 174.39, 780.22 176.53, 781.56 176.82 C 782.14 176.94, 782.82 177.28, 783.05 177.56 C 783.65 178.28, 788.05 180.33, 789 180.33 C 789.43 180.33, 790.42 180.71, 791.21 181.17 C 793.27 182.38, 798.44 183.63, 802.94 184 C 808.04 184.42, 820.73 184.42, 824.33 183.99 C 825.89 183.81, 828.22 183.28, 829.5 182.81 C 834.87 180.85, 836.5 180.33, 837.35 180.33 C 838.51 180.33, 841.26 179.14, 842.33 178.17 C 842.79 177.75, 844.48 176.88, 846.08 176.24 C 848.04 175.45, 849.35 174.67, 850.11 173.87 C 850.74 173.21, 851.41 172.67, 851.6 172.67 C 851.8 172.67, 852.82 171.92, 853.87 171 C 854.91 170.08, 855.96 169.33, 856.18 169.33 C 856.41 169.33, 857.16 168.6, 857.84 167.7 C 858.53 166.8, 859.46 165.87, 859.91 165.63 C 860.36 165.39, 861.01 164.63, 861.36 163.95 C 861.71 163.27, 862.43 162.45, 862.96 162.13 C 863.5 161.82, 864.28 160.95, 864.69 160.2 C 865.1 159.45, 865.94 158.41, 866.55 157.89 C 867.16 157.38, 868.02 156.25, 868.45 155.39 C 870.33 151.66, 870.64 151.13, 871.3 150.53 C 871.68 150.19, 872.09 149.37, 872.21 148.7 C 872.33 148.04, 872.79 146.98, 873.22 146.34 C 873.65 145.7, 874 144.99, 874 144.75 C 874 144.51, 874.37 143.61, 874.83 142.73 C 875.29 141.86, 875.82 140.25, 876.02 139.15 C 876.21 138.06, 876.59 136.57, 876.85 135.83 C 877.11 135.1, 877.55 133.18, 877.83 131.56 C 878.4 128.18, 878.48 128, 879.35 128 C 879.98 128, 880 127.69, 880 118.91 C 880 109.89, 880 109.82, 879.27 109.5 C 878.66 109.22, 878.45 108.64, 877.96 105.83 C 877.65 104, 877.09 101.53, 876.73 100.33 C 876.36 99.14, 875.97 97.59, 875.85 96.89 C 875.73 96.19, 875.34 95.14, 874.98 94.56 C 874.63 93.98, 874.34 93.23, 874.33 92.89 C 874.33 92.56, 873.9 91.43, 873.37 90.39 C 872.84 89.35, 871.86 87.36, 871.19 85.97 C 869.98 83.46, 869.65 82.94, 865.85 77.61 C 863.73 74.63, 856.01 66.68, 853.83 65.22 C 853.1 64.73, 851.94 63.96, 851.25 63.5 C 850.56 63.03, 850 62.52, 850 62.35 C 850 62.04, 846.78 60.19, 845.58 59.8 C 845.21 59.69, 844.22 59.16, 843.39 58.63 C 842.55 58.1, 841.59 57.67, 841.26 57.67 C 840.92 57.67, 839.94 57.31, 839.07 56.88 C 838.21 56.45, 837.06 55.99, 836.53 55.86 C 835.99 55.73, 835.2 55.34, 834.76 55 C 834.32 54.65, 833.13 54.28, 832.07 54.16 C 831.02 54.04, 829.12 53.66, 827.83 53.32 C 825.28 52.64, 821.25 52.16, 815.33 51.82 C 810.87 51.56, 800.2 52.44, 798.33 53.22 C 797.69 53.48, 796.07 53.84, 794.74 54.01 C 793.19 54.21, 791.79 54.63, 790.87 55.16 C 790.09 55.62, 789.15 56, 788.8 56 C 788.45 56, 787.57 56.37, 786.83 56.82 C 786.1 57.28, 785.19 57.65, 784.81 57.66 C 784.44 57.66, 783.61 58.05, 782.98 58.52 C 782.35 58.99, 780.59 59.98, 779.08 60.72 C 777.57 61.47, 776.24 62.22, 776.12 62.4 C 776.01 62.58, 774.85 63.42, 773.54 64.26 C 771.21 65.77, 767.98 68.22, 766.33 69.73 C 765.88 70.15, 764.73 71.17, 763.79 72 C 762.85 72.83, 761.43 74.33, 760.64 75.34 C 759.84 76.34, 758.3 78.04, 757.21 79.12 C 755.46 80.84, 754.41 82.04, 750.32 87 C 746.67 91.41, 746 92.46, 746 93.67 C 746 94.45, 746.23 95.1, 746.64 95.47 C 746.99 95.79, 747.45 96.49, 747.68 97.02 C 747.9 97.56, 748.21 98, 748.37 98 C 748.53 98, 749.07 98.64, 749.57 99.42 C 750.07 100.2, 751.13 101.63, 751.91 102.61 C 752.69 103.59, 753.33 104.52, 753.33 104.67 C 753.33 104.82, 754.01 105.74, 754.83 106.7 C 755.66 107.67, 756.95 109.48, 757.71 110.73 C 759.53 113.75, 760 113.74, 762.65 110.66 C 763.76 109.37, 764.67 108.17, 764.67 108 C 764.67 107.82, 765.42 106.85, 766.33 105.83 C 767.25 104.82, 768 103.85, 768 103.67 C 768 103.37, 772.78 97.6, 775.14 95.05 C 779.1 90.76, 785.79 84.67, 787.76 83.54 C 788.64 83.03, 789.88 82.17, 790.52 81.61 C 791.2 81.01, 792.94 80.15, 794.78 79.51 C 796.49 78.92, 798.55 78.05, 799.36 77.58 C 801.3 76.45, 810.8 75.15, 814.67 75.48 C 821.58 76.07, 825.17 76.7, 827.17 77.67 C 830.22 79.15, 832.24 79.95, 833.52 80.19 C 834.16 80.31, 834.88 80.69, 835.11 81.02 C 835.35 81.36, 836.47 82.25, 837.61 83.01 C 838.74 83.77, 840.61 85.32, 841.75 86.45 C 844.15 88.83, 847.67 92.93, 847.67 93.35 C 847.67 93.51, 848.1 94.14, 848.63 94.74 C 849.16 95.35, 849.77 96.46, 849.97 97.22 C 850.17 97.97, 850.55 98.76, 850.8 98.97 C 851.06 99.18, 851.36 99.9, 851.49 100.56 C 851.61 101.22, 852 102.15, 852.35 102.63 C 852.7 103.11, 853.23 104.7, 853.53 106.17 C 853.83 107.63, 854.32 109.28, 854.61 109.83 C 855.49 111.47, 855.36 122.89, 854.42 126.67 C 854.04 128.23, 853.63 130.05, 853.52 130.73 C 853.18 132.77, 849 141.59, 847.25 143.96 C 846.65 144.77, 845.48 146.12, 844.64 146.96 C 843.8 147.81, 842.86 148.9, 842.56 149.4 C 842.26 149.89, 841.47 150.55, 840.82 150.86 C 840.16 151.17, 839.25 151.93, 838.78 152.54 C 838.25 153.24, 837.45 153.79, 836.67 154 C 835.98 154.19, 835.23 154.55, 835.01 154.82 C 834.79 155.08, 834.07 155.48, 833.4 155.7 C 832.73 155.92, 831.92 156.44, 831.59 156.85 C 831.23 157.32, 830.45 157.7, 829.58 157.84 C 828.8 157.97, 827.57 158.43, 826.83 158.85 C 825.31 159.73, 820.93 160.93, 817.5 161.4 C 812.06 162.16, 804.14 161.07, 800 159 C 798.99 158.5, 797.64 157.98, 797 157.85 C 795.55 157.56, 791 155.42, 791 155.02 C 791 154.86, 790.35 154.41, 789.56 154.03 C 788.77 153.65, 787.69 152.87, 787.15 152.3 C 786.61 151.74, 785.63 150.99, 784.97 150.65 C 784.3 150.31, 782.73 148.97, 781.47 147.67 C 779.44 145.58, 778.09 144.21, 776.33 142.48 C 774.34 140.5, 772 137.93, 772 137.71 C 772 137.56, 771.18 136.55, 770.17 135.47 C 769.17 134.39, 768.34 133.4, 768.34 133.29 C 768.34 133.17, 767.68 132.38, 766.89 131.54 C 766.09 130.7, 764.78 128.96, 763.97 127.68 C 763.16 126.4, 762.26 125.28, 761.98 125.18 C 761.69 125.08, 761.2 124.47, 760.9 123.83 C 760.59 123.19, 759.74 122.01, 759.01 121.21 C 758.27 120.42, 757.43 119.19, 757.14 118.48 C 756.84 117.77, 756.42 117.03, 756.2 116.85 C 755.55 116.29, 753.12 112.92, 752.55 111.78 C 752.25 111.2, 751.67 110.45, 751.24 110.11 C 750.82 109.78, 749.92 108.67, 749.24 107.67 C 748.57 106.66, 747.56 105.33, 747.01 104.7 C 746.45 104.08, 746 103.44, 746 103.27 C 746 103.1, 745.58 102.41, 745.06 101.73 C 744.54 101.05, 743.23 99.3, 742.14 97.83 C 741.06 96.37, 739.84 94.81, 739.42 94.37 C 739.01 93.93, 738.67 93.44, 738.67 93.27 C 738.67 93.1, 737.94 92.18, 737.05 91.23 C 736.15 90.28, 735.23 89.13, 734.99 88.67 C 734.64 88, 732.38 85.05, 731.67 84.33 C 731.58 84.24, 730.92 83.3, 730.21 82.25 C 729.5 81.2, 728.82 80.33, 728.69 80.33 C 728.42 80.33, 728.1 80.03, 724.1 75.96 C 719.13 70.89, 714.2 66.57, 710.64 64.18 C 709.64 63.52, 708.35 62.64, 707.76 62.24 C 705.74 60.85, 704.37 60.06, 703.6 59.82 C 703.18 59.68, 702.41 59.22, 701.89 58.79 C 701.37 58.35, 700.55 57.92, 700.06 57.81 C 699.57 57.71, 698.49 57.34, 697.67 57 C 696.84 56.65, 695.57 56.19, 694.83 55.97 C 694.1 55.74, 693.13 55.29, 692.67 54.96 C 692.21 54.64, 690.86 54.2, 689.67 54 C 688.48 53.79, 686.74 53.41, 685.82 53.14 C 683.4 52.45, 675.21 51.68, 670.14 51.67 C 667.74 51.67, 665.72 51.73, 665.64 51.8 M 212.17 52.37 C 210.7 52.52, 208.83 52.87, 208 53.13 C 207.18 53.4, 205.32 53.78, 203.87 53.98 C 202.43 54.18, 200.71 54.63, 200.04 54.98 C 199.38 55.33, 198.24 55.8, 197.51 56.03 C 196.78 56.25, 195.73 56.71, 195.17 57.05 C 194.62 57.39, 193.92 57.66, 193.61 57.67 C 193.3 57.67, 192.63 58.02, 192.11 58.46 C 191.59 58.9, 190.64 59.51, 190 59.81 C 183.75 62.8, 175.84 69.46, 171.16 75.67 C 170.54 76.49, 169.73 77.54, 169.36 78 C 167.47 80.36, 167.02 81.01, 165.89 83.09 C 165.22 84.34, 164.67 85.51, 164.67 85.7 C 164.67 85.88, 164.29 86.59, 163.83 87.26 C 163.38 87.94, 163 88.72, 163 88.99 C 163 89.27, 162.55 90.4, 162 91.5 C 161.45 92.6, 161 93.69, 161 93.93 C 161 94.17, 160.71 94.92, 160.36 95.61 C 160.01 96.3, 159.55 97.84, 159.33 99.02 C 159.12 100.2, 158.66 102.29, 158.32 103.67 C 157.26 107.93, 156.87 115.23, 157.27 123.34 C 157.51 128.03, 157.8 130.99, 158.13 131.91 C 158.41 132.69, 158.8 134.56, 159.01 136.06 C 159.23 137.67, 159.64 139.16, 160 139.67 C 160.34 140.15, 160.72 140.98, 160.84 141.52 C 161.16 142.94, 163.26 148.3, 164.03 149.67 C 164.39 150.31, 165.43 152.29, 166.34 154.07 C 167.32 155.99, 168.36 157.55, 168.88 157.89 C 169.36 158.21, 169.96 158.95, 170.21 159.54 C 170.45 160.14, 171.37 161.36, 172.24 162.27 C 173.12 163.18, 174.92 165.06, 176.24 166.45 C 177.56 167.83, 179.08 169.2, 179.63 169.48 C 180.17 169.76, 180.93 170.43, 181.31 170.97 C 181.69 171.5, 182.69 172.28, 183.53 172.68 C 184.37 173.09, 185.45 173.78, 185.91 174.21 C 186.38 174.65, 186.91 175, 187.08 175 C 187.26 175, 187.84 175.37, 188.38 175.82 C 188.92 176.27, 189.88 176.79, 190.52 176.96 C 191.16 177.14, 191.95 177.59, 192.26 177.96 C 192.9 178.71, 195.54 179.81, 198.33 180.5 C 199.34 180.75, 201.37 181.35, 202.83 181.84 C 204.3 182.34, 206.18 182.96, 207 183.22 C 211.25 184.58, 230.09 184.64, 235 183.32 C 236.38 182.95, 238.18 182.48, 239 182.28 C 239.83 182.09, 240.72 181.73, 241 181.49 C 241.28 181.25, 242.85 180.74, 244.5 180.35 C 246.77 179.81, 247.74 179.41, 248.5 178.67 C 249.05 178.14, 250.7 177.2, 252.16 176.59 C 254.18 175.75, 255.01 175.21, 255.6 174.32 C 256.02 173.69, 256.8 173.02, 257.32 172.83 C 257.84 172.65, 259.01 171.75, 259.93 170.83 C 265.3 165.49, 265.51 165.39, 265.81 168.08 C 265.92 169.05, 266.08 172.05, 266.17 174.76 C 266.39 181.66, 266.07 181.32, 272.46 181.38 C 275.23 181.41, 279.87 181.47, 282.77 181.51 L 288.04 181.58 288.6 180.72 C 289.13 179.92, 289.17 175.58, 289.17 118.32 C 289.17 66.64, 289.09 56.68, 288.71 56.22 C 288.3 55.73, 287.12 55.67, 277.84 55.67 C 267.69 55.67, 267.42 55.68, 266.8 56.37 C 266.24 56.98, 266.15 57.78, 266 63.02 C 265.85 68.01, 265.74 69.07, 265.27 69.54 C 264.74 70.07, 264.65 70.06, 263.78 69.5 C 263.27 69.16, 261.86 67.98, 260.64 66.86 C 256 62.63, 254.62 61.52, 252.59 60.4 C 251.44 59.76, 250.2 58.98, 249.83 58.67 C 249.13 58.08, 245.41 56.26, 244.02 55.83 C 243.58 55.69, 242.54 55.23, 241.72 54.79 C 240.86 54.33, 239.66 54, 238.87 54 C 238.12 53.99, 236.68 53.76, 235.67 53.48 C 230.74 52.11, 219.66 51.58, 212.17 52.37 M 506 52.37 C 504.07 52.53, 501.82 52.87, 501 53.14 C 500.18 53.4, 498.45 53.8, 497.17 54.01 C 495.79 54.24, 494.35 54.73, 493.65 55.2 C 493 55.64, 492.17 56, 491.82 56 C 491.46 56.01, 490.55 56.36, 489.8 56.79 C 489.04 57.22, 487.9 57.67, 487.26 57.79 C 486.62 57.91, 485.83 58.3, 485.52 58.64 C 485.21 58.99, 483.65 59.92, 482.06 60.71 C 480.47 61.5, 479.11 62.27, 479.05 62.42 C 478.99 62.58, 477.83 63.43, 476.48 64.33 C 475.13 65.22, 473.41 66.52, 472.65 67.22 C 471.9 67.92, 470.95 68.71, 470.54 68.99 C 470.13 69.27, 469.2 70.18, 468.48 71 C 467.76 71.82, 466.99 72.62, 466.77 72.76 C 466.55 72.9, 465.22 74.59, 463.82 76.51 C 462.42 78.43, 461.13 80, 460.95 80 C 460.78 80, 460.4 80.56, 460.12 81.25 C 459.83 81.94, 459.24 82.98, 458.8 83.56 C 458.36 84.14, 458 84.83, 458 85.08 C 458 85.33, 457.63 86.03, 457.18 86.64 C 456.74 87.25, 456.27 88.22, 456.15 88.79 C 456.03 89.36, 455.59 90.36, 455.17 91 C 454.74 91.64, 454.29 92.69, 454.17 93.33 C 454.04 93.98, 453.74 94.81, 453.51 95.18 C 453.27 95.55, 452.81 97.05, 452.49 98.51 C 452.17 99.97, 451.71 101.57, 451.46 102.06 C 450.82 103.32, 450.36 106.92, 450 113.46 C 449.63 120.32, 450.25 128.71, 451.51 133.83 C 451.96 135.67, 452.33 137.48, 452.33 137.87 C 452.33 138.25, 452.68 139.23, 453.11 140.03 C 453.54 140.84, 454.06 142.19, 454.27 143.04 C 454.48 143.88, 455.03 145.23, 455.49 146.04 C 455.95 146.84, 456.33 147.73, 456.33 148.02 C 456.33 148.3, 457.03 149.65, 457.87 151.02 C 458.72 152.38, 459.75 154.25, 460.17 155.17 C 460.59 156.08, 461.55 157.49, 462.3 158.29 C 463.05 159.09, 463.67 159.89, 463.67 160.07 C 463.67 160.25, 464.45 161.18, 465.42 162.14 C 466.38 163.1, 467.48 164.25, 467.86 164.69 C 468.25 165.14, 469.07 165.96, 469.7 166.52 C 470.32 167.08, 471.13 167.87, 471.5 168.28 C 472.73 169.66, 475.67 171.99, 477.08 172.71 C 477.84 173.1, 478.75 173.77, 479.09 174.21 C 479.43 174.64, 479.91 175, 480.15 175 C 480.38 175, 480.96 175.3, 481.44 175.68 C 481.91 176.05, 483 176.57, 483.86 176.82 C 484.71 177.08, 485.73 177.59, 486.12 177.95 C 487.06 178.82, 490.74 180.33, 491.91 180.34 C 492.42 180.34, 493.28 180.63, 493.83 181 C 494.78 181.62, 495.6 181.91, 500 183.16 C 503.27 184.08, 512.3 184.48, 521 184.08 C 529.24 183.7, 529.85 183.58, 535 181.47 C 536.01 181.06, 537.66 180.57, 538.67 180.39 C 540.62 180.03, 543.72 178.65, 544.84 177.64 C 545.21 177.3, 546.1 176.78, 546.83 176.48 C 548.52 175.77, 551.03 173.93, 552.98 171.96 C 553.81 171.12, 555.34 169.9, 556.36 169.25 C 557.39 168.61, 558.54 167.67, 558.93 167.18 L 559.64 166.28 559.82 167.06 C 559.92 167.48, 560.13 168.51, 560.29 169.33 C 560.45 170.16, 560.61 183.58, 560.64 199.17 C 560.67 214.75, 560.78 227.84, 560.88 228.25 L 561.07 229 572.91 229 C 583.59 229, 584.72 228.95, 584.53 228.47 C 584.42 228.18, 584.33 189.5, 584.33 142.53 C 584.32 69.73, 584.25 57.02, 583.86 56.47 C 583.43 55.9, 582.77 55.81, 577.28 55.62 C 568.98 55.32, 562.48 55.61, 561.62 56.31 C 561.02 56.79, 560.94 57.39, 560.78 62.5 C 560.6 68.29, 560.26 70.67, 559.61 70.67 C 559.41 70.67, 558.02 69.43, 556.52 67.92 C 551.23 62.59, 549.58 61.29, 546 59.64 C 545.36 59.35, 544.63 58.86, 544.38 58.55 C 544.12 58.25, 543.75 58, 543.54 58 C 543.34 58, 542.27 57.55, 541.17 57 C 540.07 56.45, 538.93 56, 538.63 56 C 538.34 56, 537.4 55.63, 536.54 55.17 C 535.67 54.71, 534.34 54.24, 533.57 54.13 C 532.8 54.02, 531.04 53.64, 529.67 53.29 C 528.29 52.94, 525.82 52.51, 524.17 52.33 C 520.62 51.95, 510.94 51.98, 506 52.37 M 428.54 52.69 C 427.64 52.84, 426.51 53.11, 426.04 53.3 C 425.56 53.48, 423.94 53.78, 422.43 53.95 C 420.5 54.17, 419.44 54.47, 418.8 54.96 C 418.31 55.35, 417.68 55.67, 417.4 55.67 C 416.52 55.67, 412.22 57.74, 411.17 58.67 C 410.62 59.15, 409.12 60.17, 407.83 60.92 C 405.62 62.22, 402.7 64.98, 399.05 69.25 C 397.47 71.1, 396.52 71.57, 396.14 70.71 C 396 70.41, 395.81 67.12, 395.7 63.39 C 395.52 57.19, 395.44 56.57, 394.85 56.14 C 394.33 55.76, 392.3 55.67, 384.14 55.67 C 375.05 55.67, 374 55.72, 373.36 56.25 L 372.64 56.83 372.74 118.41 L 372.83 179.98 373.59 180.74 C 374.33 181.48, 374.54 181.5, 383.26 181.67 C 388.16 181.77, 392.73 181.71, 393.43 181.55 C 394.12 181.38, 394.97 180.89, 395.31 180.45 C 395.91 179.69, 395.94 178.44, 395.98 148.58 C 396.01 123.9, 396.13 116.37, 396.52 112 C 397.16 104.99, 397.3 104.08, 398.01 102.67 C 398.32 102.03, 398.69 100.98, 398.83 100.33 C 399.06 99.17, 401.02 94.94, 401.7 94.13 C 401.89 93.89, 402.38 93.1, 402.78 92.37 C 404.57 89.06, 405.05 88.39, 406.8 86.72 C 407.83 85.73, 408.67 84.81, 408.67 84.65 C 408.67 84.5, 408.97 84.28, 409.35 84.16 C 409.72 84.04, 410.96 83.17, 412.1 82.22 C 413.46 81.07, 415.13 80.1, 417 79.36 C 418.56 78.74, 420.6 77.88, 421.53 77.45 C 423.84 76.38, 431.32 75.62, 438.14 75.74 C 442.72 75.82, 443.37 75.77, 443.9 75.24 C 444.45 74.7, 444.51 73.76, 444.6 64.93 C 444.71 54.14, 444.62 53.56, 442.79 52.79 C 441.55 52.28, 431.43 52.2, 428.54 52.69 M 323.4 55.67 C 320.56 55.79, 319.56 55.96, 319.33 56.33 C 319.13 56.64, 319.01 80.37, 319.01 118.52 C 319 168.84, 319.08 180.32, 319.44 180.8 C 320.16 181.79, 322.41 181.97, 331.67 181.81 L 340.5 181.65 341.36 180.71 C 342.19 179.81, 342.24 179.57, 342.41 174.8 C 342.51 172.07, 342.62 144.38, 342.65 113.27 L 342.7 56.71 341.94 56.22 C 341.08 55.68, 330.36 55.36, 323.4 55.67 M 218.5 74.99 C 214.37 75.29, 208.06 76.66, 206.72 77.56 C 205.66 78.27, 202.95 79.57, 201.33 80.16 C 199.47 80.83, 197.74 82.14, 194.34 85.43 C 191.03 88.64, 190.96 88.72, 188.86 91.87 C 186.14 95.95, 185.86 96.42, 185.09 98.27 C 184.07 100.71, 182.38 105.21, 182.01 106.5 C 181.85 107.05, 181.47 110.05, 181.18 113.18 C 180.69 118.35, 180.68 119.29, 181.16 123.78 C 181.7 128.96, 182.17 131.57, 182.67 132.17 C 182.83 132.37, 183.13 133.24, 183.32 134.11 C 183.84 136.41, 186.36 141.6, 187.78 143.28 C 188.45 144.08, 189 144.91, 189 145.13 C 189 145.47, 189.99 146.63, 193.1 149.92 C 193.32 150.15, 194.06 150.8, 194.73 151.36 C 195.41 151.92, 196.06 152.68, 196.18 153.05 C 196.3 153.43, 197.07 154, 197.95 154.38 C 198.8 154.75, 199.74 155.27, 200.04 155.54 C 200.72 156.16, 204.96 158.33, 205.48 158.33 C 205.69 158.33, 206.38 158.71, 206.99 159.16 C 207.61 159.62, 208.65 160.09, 209.31 160.21 C 209.96 160.34, 210.99 160.64, 211.59 160.89 C 213.11 161.53, 221.91 162.04, 227.5 161.81 C 232.02 161.63, 235.79 160.98, 237.17 160.14 C 237.53 159.91, 238.31 159.63, 238.89 159.51 C 239.48 159.39, 240.13 159.08, 240.35 158.81 C 240.57 158.55, 241.34 158.18, 242.06 157.98 C 243.75 157.53, 246.18 155.97, 249.79 153.02 C 251.37 151.72, 252.8 150.67, 252.98 150.67 C 253.5 150.67, 255.67 148.45, 255.67 147.92 C 255.67 147.45, 256.6 146.09, 258.5 143.81 C 258.96 143.24, 259.62 142.27, 259.96 141.64 C 260.3 141.01, 261.04 139.67, 261.61 138.65 C 262.18 137.64, 262.85 135.9, 263.11 134.79 C 263.37 133.69, 263.75 132.47, 263.95 132.09 C 264.46 131.14, 265.67 125.13, 266.05 121.67 C 266.26 119.81, 266.24 117.91, 266.02 116.17 C 264.98 108.22, 264.61 106.21, 263.69 103.44 C 263.13 101.77, 262.67 100.18, 262.67 99.91 C 262.67 99.64, 262.45 99.23, 262.18 99.01 C 261.92 98.79, 261.52 98.06, 261.31 97.39 C 260.83 95.9, 258.95 92.91, 257.49 91.33 C 256.9 90.69, 256.21 89.77, 255.96 89.29 C 255.7 88.8, 254.64 87.71, 253.58 86.85 C 252.53 86, 251.67 85.16, 251.67 84.99 C 251.67 84.82, 251.24 84.46, 250.72 84.19 C 250.19 83.92, 248.88 82.97, 247.8 82.07 C 246.72 81.17, 244.86 80, 243.67 79.48 C 242.47 78.96, 240.97 78.19, 240.32 77.77 C 239.19 77.04, 234.93 75.92, 231 75.31 C 228.03 74.86, 222.44 74.71, 218.5 74.99 M 510.33 74.98 C 508.78 75.12, 506.69 75.49, 505.69 75.79 C 504.69 76.09, 503.56 76.33, 503.16 76.33 C 502.77 76.33, 501.71 76.71, 500.81 77.18 C 499.9 77.64, 497.84 78.62, 496.22 79.36 C 493.35 80.66, 491.29 82.13, 487.14 85.86 C 486.03 86.86, 484.88 87.86, 484.6 88.09 C 483.96 88.61, 481.66 92.04, 480.71 93.92 C 480.31 94.7, 479.85 95.33, 479.69 95.33 C 479.53 95.33, 479.16 96.03, 478.87 96.89 C 478.57 97.74, 478.13 98.68, 477.88 98.97 C 477.62 99.26, 477.23 100.1, 477 100.83 C 476.76 101.57, 476.3 102.56, 475.96 103.04 C 475.38 103.87, 475.11 105.23, 473.79 113.67 C 473.27 116.97, 473.41 122.96, 474.04 125.1 C 474.21 125.69, 474.57 127.57, 474.83 129.29 C 475.1 131, 475.45 132.58, 475.61 132.79 C 475.78 133, 476.18 133.99, 476.5 135 C 477.22 137.24, 478.99 140.51, 480.9 143.12 C 481.69 144.19, 482.33 145.26, 482.33 145.49 C 482.33 145.88, 484.67 148.66, 486.17 150.05 C 488.69 152.39, 490.65 153.99, 491.58 154.46 C 492.17 154.77, 492.91 155.39, 493.21 155.86 C 493.91 156.92, 495 157.48, 497.33 157.97 C 498.33 158.18, 499.78 158.73, 500.55 159.18 C 501.32 159.63, 502.28 160, 502.67 160 C 503.07 160, 503.86 160.33, 504.42 160.73 C 505.32 161.37, 506.13 161.5, 511.12 161.79 C 518.58 162.22, 527.34 161.71, 530 160.7 C 531.01 160.32, 532.06 160, 532.33 159.99 C 532.61 159.99, 533.49 159.54, 534.3 158.99 C 535.11 158.45, 536.09 158, 536.49 158 C 536.88 158, 537.71 157.63, 538.33 157.17 C 538.95 156.71, 539.63 156.33, 539.83 156.33 C 540.04 156.33, 540.71 155.81, 541.33 155.17 C 541.96 154.52, 542.67 154, 542.92 154 C 543.5 154, 552.67 144.79, 552.67 144.21 C 552.67 143.52, 554.3 140.6, 555.24 139.6 C 555.71 139.11, 556.37 137.91, 556.71 136.93 C 557.06 135.96, 557.97 133.37, 558.75 131.17 L 560.16 127.17 560.16 118.17 C 560.17 109.19, 560.16 109.16, 559.29 107.17 C 558.81 106.07, 558.32 104.5, 558.2 103.69 C 557.96 102.12, 555.63 97, 554.19 94.9 C 553.71 94.2, 553.12 93.15, 552.87 92.56 C 552.27 91.16, 544.97 83.86, 542.74 82.42 C 542.24 82.1, 541.56 81.5, 541.23 81.08 C 540.89 80.67, 540.29 80.33, 539.89 80.33 C 539.49 80.33, 538.63 80.05, 537.99 79.71 C 537.36 79.37, 536.46 78.98, 536 78.85 C 535.54 78.71, 534.6 78.22, 533.91 77.75 C 533.09 77.19, 531.51 76.67, 529.41 76.25 C 527.63 75.9, 525.57 75.48, 524.83 75.32 C 522.88 74.89, 513.62 74.67, 510.33 74.98"/>
</svg>
